<svg width="40" height="41" viewBox="0 0 40 41" fill="none" xmlns="http://www.w3.org/2000/svg">
<g clip-path="url(#clip0_1_887)">
<g style="mix-blend-mode:multiply" opacity="0.7">
<path d="M25.0154 40.4711C35.4696 37.9552 41.9442 27.2741 39.4768 16.6143C37.0093 5.95443 26.5343 -0.647492 16.0801 1.86846C5.62597 4.3844 -0.848585 15.0655 1.61883 25.7253C4.08624 36.3851 14.5613 42.987 25.0154 40.4711Z" fill="#2E124F"/>
</g>
<path d="M33.2009 33.8547C40.7963 26.11 40.7963 13.5533 33.2009 5.80855C25.6056 -1.93619 13.2911 -1.93618 5.69582 5.80855C-1.89951 13.5533 -1.89951 26.11 5.69582 33.8547C13.2911 41.5995 25.6056 41.5995 33.2009 33.8547Z" fill="url(#paint0_linear_1_887)"/>
<path d="M26.2755 13.7235V9.81686C26.2755 9.51237 26.0336 9.26268 25.732 9.26268H23.3789C23.0803 9.26268 22.8354 9.50932 22.8354 9.81686C22.8354 10.2888 22.2949 10.5446 21.9425 10.2401L19.5506 8.1726C19.3445 7.99599 19.0429 7.99904 18.8399 8.18173L10.3024 15.8945C10.1859 15.9981 10.1202 16.1503 10.1202 16.3087V29.545C10.1202 29.8495 10.3621 30.0991 10.6637 30.0991H14.047C14.3457 30.0991 14.5905 29.8525 14.5905 29.545V21.4942C14.5905 21.1897 14.8324 20.94 15.134 20.94H23.6506C23.9492 20.94 24.1941 21.1866 24.1941 21.4942V29.545C24.1941 29.8495 24.436 30.0991 24.7376 30.0991H28.1419C28.4405 30.0991 28.6853 29.8525 28.6853 29.545V16.3147C28.6853 16.1534 28.6167 15.9981 28.4942 15.8915L26.4726 14.1437C26.3501 14.0371 26.2815 13.8849 26.2815 13.7205L26.2755 13.7235Z" fill="url(#paint1_linear_1_887)"/>
</g>
<defs>
<linearGradient id="paint0_linear_1_887" x1="19.5076" y1="-7.52452" x2="19.3896" y2="43.5146" gradientUnits="userSpaceOnUse">
<stop stop-color="#E3DA00"/>
<stop offset="0.45" stop-color="#FFD600"/>
<stop offset="0.64" stop-color="#E59900"/>
<stop offset="0.8" stop-color="#D36D00"/>
<stop offset="0.93" stop-color="#C85200"/>
<stop offset="1" stop-color="#C44800"/>
</linearGradient>
<linearGradient id="paint1_linear_1_887" x1="41.3468" y1="54.1937" x2="19.621" y2="23.0365" gradientUnits="userSpaceOnUse">
<stop stop-color="#FFDC26"/>
<stop offset="0.17" stop-color="#F3BF20"/>
<stop offset="0.56" stop-color="#D98214"/>
<stop offset="0.85" stop-color="#CA5C0C"/>
<stop offset="1" stop-color="#C44E0A"/>
</linearGradient>
<clipPath id="clip0_1_887">
<rect width="40" height="41" fill="white"/>
</clipPath>
</defs>
</svg>
