<svg width="24" height="24" viewBox="0 0 24 24" fill="none" xmlns="http://www.w3.org/2000/svg">
<path d="M11.5008 23.0017C17.8526 23.0017 23.0017 17.8526 23.0017 11.5008C23.0017 5.1491 17.8526 0 11.5008 0C5.1491 0 0 5.1491 0 11.5008C0 17.8526 5.1491 23.0017 11.5008 23.0017Z" fill="url(#paint0_radial_11_2331)"/>
<path d="M20.7211 11.5008C20.7211 12.11 20.6613 12.7075 20.5468 13.2851C19.7169 17.5243 15.9807 20.7227 11.4992 20.7227C6.40689 20.7227 2.27728 16.5931 2.27728 11.5008C2.27728 7.65506 4.63255 4.35701 7.98039 2.97605C8.9215 2.586 9.94395 2.34864 11.0145 2.29221C11.1755 2.28391 11.3382 2.27893 11.5009 2.27893C16.0687 2.27893 19.8613 5.60021 20.5933 9.96054C20.6796 10.4601 20.7228 10.9747 20.7228 11.5008H20.7211Z" fill="url(#paint1_linear_11_2331)"/>
<path style="mix-blend-mode:multiply" d="M18.1185 15.0811C17.9957 15.4246 14.9383 15.5707 11.4577 15.5707C8.26585 15.5707 5.61845 15.34 5.10391 15.0346C5.04416 14.9997 5.01428 14.9632 5.01428 14.9267C5.01428 14.8935 7.16042 8.67917 7.16042 8.67917C7.16042 8.67917 8.67085 12.7274 9.49245 10.973L11.549 5.38279L11.6137 5.20685L11.6303 5.24502L11.7149 5.44254L13.8511 10.4452C14.1416 10.9133 14.3341 11.0461 14.6462 10.9564C15.5674 10.6958 16.1649 8.13641 16.1649 8.13641L18.1185 15.0794V15.0811Z" fill="url(#paint2_linear_11_2331)"/>
<path style="mix-blend-mode:multiply" opacity="0.5" d="M2.95449 12.0071C2.95449 6.91478 6.99778 2.78517 12.0917 2.78517C13.4163 2.78517 15.3466 3.23664 16.4853 3.74122C15.0479 2.81505 13.3366 2.27893 11.4992 2.27893C6.40689 2.27893 2.27728 6.40688 2.27728 11.5008C2.27728 15.2686 4.53629 18.5086 7.77458 19.9393C5.22677 18.2978 2.95449 15.2653 2.95449 12.0087V12.0071Z" fill="url(#paint3_linear_11_2331)"/>
<path d="M17.4197 14.764V14.7723H17.418C17.3832 14.8619 17.1259 14.9466 16.6944 15.018C15.6819 15.1923 13.7167 15.3084 11.4577 15.3084C8.50319 15.3084 6.05165 15.1076 5.57695 14.8437C5.52217 14.8138 5.49396 14.7823 5.49396 14.7507C5.49396 14.7507 5.49562 14.7441 5.49894 14.7325C5.59521 14.4022 7.09568 9.64516 7.14547 9.4908V9.48748C7.14547 9.48748 8.87997 12.749 9.64017 11.227L10.2344 9.71487L11.1888 7.28823L11.5456 6.37866L11.6054 6.22595L11.6203 6.25915L11.6983 6.43011L12.6079 8.42354L13.6768 10.7689C13.9457 11.1738 14.2395 11.2751 14.5283 11.1987C14.8072 11.1257 15.081 10.8867 15.3217 10.5979C15.8213 10.0037 16.1865 9.19867 16.1865 9.19867L16.3541 9.95223L16.7508 11.7432L17.345 14.4171L17.4114 14.7126C17.4214 14.7242 17.4263 14.7375 17.4263 14.7507C17.4263 14.7557 17.4263 14.759 17.4247 14.764H17.4197Z" fill="url(#paint4_linear_11_2331)"/>
<path style="mix-blend-mode:multiply" opacity="0.5" d="M18.4737 5.46577C19.5177 6.9596 20.346 9.21196 20.346 11.1722C20.346 16.2645 16.6396 20.4788 11.5473 20.4788C8.76217 20.4788 5.62512 18.7243 3.93378 16.7724C5.60023 19.1592 8.36713 20.7211 11.4992 20.7211C16.5915 20.7211 20.7211 16.5931 20.7211 11.4992C20.7211 9.19205 19.8729 7.08243 18.4737 5.46411V5.46577Z" fill="url(#paint5_linear_11_2331)"/>
<path style="mix-blend-mode:screen" d="M19.4829 3.22335C19.0463 2.80176 18.5766 2.41336 18.0753 2.06646C16.2114 0.763513 13.9457 0 11.5008 0C10.5464 0 9.62192 0.116187 8.73724 0.335282C8.07498 0.497943 7.43595 0.718698 6.82514 0.990907C6.21599 1.26146 5.63506 1.58512 5.08732 1.9536C4.40846 2.41171 3.77939 2.93952 3.21505 3.5271C1.22328 5.59522 0 8.40528 0 11.5008C0 11.5324 0 11.5656 0 11.5971C0.00497943 12.1531 0.0481345 12.6976 0.129465 13.232C0.406654 15.0777 1.12369 16.7807 2.17269 18.2297C2.44656 18.6098 2.74201 18.97 3.06069 19.3119C5.16035 21.5809 8.16461 23.0017 11.5008 23.0017C11.5174 23.0017 11.5357 23.0017 11.5523 23.0017C11.7116 23.0017 11.871 22.9967 12.027 22.99C12.6179 22.9635 13.1955 22.8921 13.7598 22.7792C13.9656 22.7377 14.1698 22.6913 14.3723 22.6398C17.3002 21.8896 19.7766 20.0123 21.3153 17.4977C21.624 16.9981 21.8929 16.472 22.1186 15.9242C22.4207 15.2005 22.6498 14.4404 22.7992 13.6519C22.9253 12.9897 22.9934 12.3092 23 11.6137C23 11.5772 23 11.5407 23 11.5025C23 8.25258 21.6522 5.31637 19.4829 3.22501V3.22335ZM20.7294 12.0104C20.6846 12.8453 20.5269 13.6503 20.2746 14.4121C20.0787 15.0063 19.8215 15.574 19.5144 16.1085C18.2712 18.2679 16.1798 19.8779 13.6968 20.4821C13.0262 20.6464 12.3258 20.7377 11.6071 20.7443C11.5705 20.7443 11.5357 20.7443 11.4992 20.7443C8.93808 20.7443 6.62265 19.7036 4.94956 18.0206C4.61261 17.6836 4.30223 17.3185 4.02006 16.9317L4.01674 16.9268C3.1636 15.7533 2.57935 14.3706 2.35527 12.8702C2.35527 12.8586 2.35195 12.8486 2.35029 12.837C2.28722 12.4004 2.25402 11.954 2.25402 11.4992C2.25402 8.92314 3.308 6.59111 5.01097 4.91636C5.58194 4.35368 6.22429 3.8657 6.92639 3.46568C7.54218 3.11546 8.19947 2.83164 8.88995 2.62914C9.6186 2.41502 10.3821 2.28888 11.1722 2.26232C11.2801 2.25734 11.3896 2.25568 11.4975 2.25568C13.2071 2.25568 14.8088 2.72043 16.1815 3.52876C16.7342 3.85408 17.2504 4.23584 17.7218 4.66739C19.1509 5.96868 20.17 7.7148 20.5617 9.68499C20.6796 10.2726 20.7393 10.8784 20.7393 11.4992C20.7393 11.6701 20.7344 11.8394 20.7261 12.0087L20.7294 12.0104Z" fill="url(#paint6_radial_11_2331)"/>
<g style="mix-blend-mode:screen">
<path d="M6.92805 3.4657C6.22761 3.86572 5.5836 4.3537 5.01263 4.91638L3.21173 3.52711C3.77773 2.93954 4.40513 2.41006 5.084 1.95361L6.92805 3.4657Z" fill="#FFE13A"/>
</g>
<path style="mix-blend-mode:screen" d="M22.1186 15.9225C21.8912 16.4686 21.6224 16.9948 21.3153 17.4961L19.5161 16.1068C19.8248 15.5723 20.0804 15.0063 20.2762 14.4105L22.1203 15.9225H22.1186Z" fill="url(#paint7_linear_11_2331)"/>
<g style="mix-blend-mode:screen">
<path d="M11.1739 2.26231C10.3821 2.28886 9.61861 2.41501 8.89161 2.62912L6.82349 0.990891C7.4343 0.717023 8.07332 0.497928 8.73559 0.335266L11.1739 2.26397V2.26231Z" fill="#FFE13A"/>
</g>
<g style="mix-blend-mode:screen">
<path d="M22.9983 11.6104C22.9917 12.3075 22.9253 12.9864 22.7975 13.6486L20.7294 12.0087C20.7393 11.8394 20.7427 11.6701 20.7427 11.4992C20.7427 10.8784 20.6813 10.2726 20.5651 9.685L22.9983 11.6104Z" fill="#FFE13A"/>
</g>
<path style="mix-blend-mode:multiply" opacity="0.5" d="M13.7581 22.7776C13.1938 22.8905 12.6162 22.9618 12.0253 22.9884C11.8676 22.995 11.7099 23 11.5506 23L11.607 20.7427C12.3257 20.7344 13.0262 20.6447 13.6967 20.4804L13.7581 22.7776Z" fill="url(#paint8_linear_11_2331)"/>
<path style="mix-blend-mode:multiply" opacity="0.5" d="M19.4829 3.22336L17.7251 4.66905C17.2537 4.2375 16.7375 3.85574 16.1848 3.53042L18.0753 2.06647C18.5749 2.41337 19.0447 2.80176 19.4829 3.22336Z" fill="url(#paint9_linear_11_2331)"/>
<path style="mix-blend-mode:multiply" opacity="0.5" d="M4.95783 18.0305L3.06067 19.3102C2.74198 18.9683 2.44654 18.6065 2.17267 18.228L4.01838 16.9284L4.0217 16.9334L4.95119 18.0222L4.95949 18.0322L4.95783 18.0305Z" fill="url(#paint10_linear_11_2331)"/>
<g opacity="0.68">
<g style="mix-blend-mode:screen">
<path d="M12.0419 20.9601C12.7606 20.9518 13.4611 20.8622 14.1316 20.6979C16.6147 20.0937 18.7061 18.4853 19.9493 16.3243C20.258 15.7898 20.5136 15.2238 20.7094 14.6279C20.9617 13.8677 21.1178 13.0627 21.1642 12.2262C21.1742 12.0569 21.1775 11.8876 21.1775 11.7166C21.1775 11.0959 21.1161 10.49 20.9999 9.90245C20.6082 7.93226 19.5891 6.18614 18.16 4.88484C17.6886 4.45495 17.1724 4.07154 16.6197 3.74621C16.3624 3.59517 16.0968 3.45575 15.8246 3.32794C15.9458 3.39267 16.067 3.45907 16.1865 3.52878C16.7392 3.8541 17.2554 4.23586 17.7268 4.66741C19.1559 5.9687 20.175 7.71482 20.5667 9.68502C20.6846 10.2726 20.7443 10.8784 20.7443 11.4992C20.7443 11.6702 20.7393 11.8395 20.731 12.0088C20.6862 12.8436 20.5285 13.6486 20.2762 14.4105C20.0804 15.0047 19.8231 15.5724 19.516 16.1068C18.2729 18.2662 16.1815 19.8763 13.6984 20.4804C13.0278 20.6447 12.3274 20.736 11.6087 20.7427C11.5722 20.7427 11.5373 20.7427 11.5008 20.7427C10.0999 20.7427 8.77375 20.429 7.58533 19.8729C8.88164 20.5667 10.3622 20.9601 11.9357 20.9601C11.9722 20.9601 12.0071 20.9601 12.0436 20.9601H12.0419Z" fill="#FFECE3"/>
</g>
<g style="mix-blend-mode:screen">
<path d="M3.4939 19.5277C3.17522 19.1858 2.87977 18.8239 2.6059 18.4455C1.55856 16.9965 0.841524 15.2952 0.562676 13.4478C0.481345 12.9133 0.43819 12.3689 0.433211 11.8129C0.433211 11.7813 0.433211 11.7481 0.433211 11.7166C0.433211 8.62106 1.65649 5.811 3.64494 3.74453C4.21094 3.15696 4.83835 2.62748 5.51721 2.17103C6.06495 1.80255 6.64588 1.47889 7.25503 1.20834C7.86584 0.934474 8.50487 0.715378 9.16714 0.552717C10.0518 0.333622 10.978 0.217435 11.9307 0.217435C13.6901 0.217435 15.3566 0.61413 16.8471 1.32121C15.252 0.478026 13.4328 0 11.5008 0C10.5464 0 9.62192 0.116187 8.73724 0.335282C8.07498 0.497943 7.43595 0.718698 6.82514 0.990907C6.21599 1.26146 5.63506 1.58512 5.08732 1.9536C4.40846 2.41171 3.77939 2.93952 3.21505 3.5271C1.22328 5.59522 0 8.40528 0 11.5008C0 11.5324 0 11.5656 0 11.5971C0.00497943 12.1531 0.0481345 12.6976 0.129465 13.232C0.406654 15.0777 1.12369 16.7807 2.17269 18.2297C2.44656 18.6098 2.74201 18.97 3.06069 19.3119C4.05492 20.3875 5.2533 21.2705 6.59277 21.9045C5.42758 21.2921 4.38024 20.487 3.4939 19.5293V19.5277Z" fill="#FFECE3"/>
</g>
</g>
<g style="mix-blend-mode:screen" opacity="0.5">
<g style="mix-blend-mode:screen">
<path d="M19.4829 3.22335C19.0463 2.80176 18.5766 2.41336 18.0754 2.06646C16.2114 0.763513 13.9457 0 11.5008 0C11.3996 0 11.2967 0.00165981 11.1954 0.00497943C13.549 0.0531139 15.73 0.805008 17.5326 2.06646C18.0322 2.41336 18.5019 2.80176 18.9401 3.22335C21.1095 5.31471 22.4573 8.24926 22.4573 11.5008C22.4573 11.5373 22.4573 11.5739 22.4573 11.612C22.4506 12.3092 22.3842 12.988 22.2564 13.6503C22.107 14.4387 21.878 15.1989 21.5759 15.9226C21.3485 16.4686 21.0796 16.9948 20.7725 17.4961C19.2339 20.0107 16.7575 21.8879 13.8296 22.6382C13.076 22.834 12.2909 22.9535 11.4842 22.9884C11.4013 22.9917 11.3183 22.995 11.2336 22.9967C11.3216 22.9983 11.4112 23 11.4992 23C11.6768 23 11.8511 22.995 12.0253 22.9884C12.832 22.9519 13.6154 22.834 14.3707 22.6382C17.2986 21.8879 19.775 20.0107 21.3136 17.4961C21.6224 16.9965 21.8913 16.4703 22.117 15.9226C22.4191 15.1989 22.6481 14.4387 22.7975 13.6503C22.9237 12.988 22.9917 12.3075 22.9983 11.612C22.9983 11.5755 22.9983 11.539 22.9983 11.5008C22.9983 8.25092 21.6506 5.31471 19.4812 3.22335H19.4829Z" fill="#FFECE3"/>
</g>
</g>
<path style="mix-blend-mode:screen" d="M11.695 6.43176C11.2552 7.6899 10.3373 10.3024 10.1049 10.9498C9.79619 11.8129 9.36796 12.3672 8.57125 12.0419C7.77454 11.7166 7.16041 10.8485 7.16041 10.8485L5.57695 14.8437C5.52217 14.8138 5.49396 14.7823 5.49396 14.7507C5.49396 14.7225 7.09402 9.65014 7.14381 9.49079V9.48748C7.14381 9.48748 8.87831 12.749 9.63851 11.227L11.5423 6.38031C11.5689 6.33881 11.5938 6.29898 11.617 6.2608L11.695 6.43176Z" fill="url(#paint11_radial_11_2331)"/>
<path style="mix-blend-mode:screen" d="M16.1832 9.20032C16.1832 9.20032 15.7981 11.217 14.8636 11.2834C14.7142 11.295 14.6047 11.2635 14.525 11.2004C15.3782 10.9747 16.1832 9.20032 16.1832 9.20032Z" fill="url(#paint12_radial_11_2331)"/>
<path style="mix-blend-mode:multiply" opacity="0.2" d="M17.4197 14.764V14.7723H17.418C17.3035 15.0711 14.6793 15.3101 11.4577 15.3101C8.50319 15.3101 6.05165 15.1093 5.57695 14.8454C5.52217 14.8155 5.49396 14.784 5.49396 14.7524C5.49396 14.7524 5.49562 14.7458 5.49894 14.7342C7.2102 15.0512 10.9199 15.5624 13.7598 14.7093C16.0006 14.0354 16.4022 11.7382 16.3524 9.95557L17.3433 14.4188L17.4097 14.7142C17.4197 14.7259 17.4247 14.7391 17.4247 14.7524C17.4247 14.7574 17.4247 14.7607 17.423 14.7657L17.4197 14.764Z" fill="url(#paint13_linear_11_2331)"/>
<defs>
<radialGradient id="paint0_radial_11_2331" cx="0" cy="0" r="1" gradientUnits="userSpaceOnUse" gradientTransform="translate(6.13964 1.13033) scale(29.6658)">
<stop stop-color="#F2D501"/>
<stop offset="0.65" stop-color="#DE7E01"/>
<stop offset="1" stop-color="#D34F01"/>
</radialGradient>
<linearGradient id="paint1_linear_11_2331" x1="26.0989" y1="10.9714" x2="1.58016" y2="11.8594" gradientUnits="userSpaceOnUse">
<stop offset="0.2" stop-color="#D34F01"/>
<stop offset="0.26" stop-color="#DB7201"/>
<stop offset="0.36" stop-color="#E59C01"/>
<stop offset="0.44" stop-color="#ECBB01"/>
<stop offset="0.51" stop-color="#F0CE01"/>
<stop offset="0.56" stop-color="#F2D501"/>
<stop offset="0.62" stop-color="#F0CF01"/>
<stop offset="0.7" stop-color="#ECBE01"/>
<stop offset="0.8" stop-color="#E6A301"/>
<stop offset="0.9" stop-color="#DD7D01"/>
<stop offset="1" stop-color="#D34F01"/>
</linearGradient>
<linearGradient id="paint2_linear_11_2331" x1="7.03925" y1="5.51059" x2="10.4701" y2="11.3382" gradientUnits="userSpaceOnUse">
<stop offset="0.2" stop-color="#D34F01"/>
<stop offset="0.26" stop-color="#DB7201"/>
<stop offset="0.36" stop-color="#E59C01"/>
<stop offset="0.44" stop-color="#ECBB01"/>
<stop offset="0.51" stop-color="#F0CE01"/>
<stop offset="0.56" stop-color="#F2D501"/>
<stop offset="0.62" stop-color="#F0CF01"/>
<stop offset="0.7" stop-color="#ECBE01"/>
<stop offset="0.8" stop-color="#E6A301"/>
<stop offset="0.9" stop-color="#DD7D01"/>
<stop offset="1" stop-color="#D34F01"/>
</linearGradient>
<linearGradient id="paint3_linear_11_2331" x1="20.9701" y1="10.6958" x2="1.71461" y2="11.3913" gradientUnits="userSpaceOnUse">
<stop stop-color="#F2D501"/>
<stop offset="0.65" stop-color="#DE7E01"/>
<stop offset="1" stop-color="#D34F01"/>
</linearGradient>
<linearGradient id="paint4_linear_11_2331" x1="5.07735" y1="6.64588" x2="14.7889" y2="15.6553" gradientUnits="userSpaceOnUse">
<stop offset="0.2" stop-color="#D34F01"/>
<stop offset="0.26" stop-color="#DB7201"/>
<stop offset="0.36" stop-color="#E59C01"/>
<stop offset="0.44" stop-color="#ECBB01"/>
<stop offset="0.51" stop-color="#F0CE01"/>
<stop offset="0.56" stop-color="#F2D501"/>
<stop offset="0.62" stop-color="#F0CF01"/>
<stop offset="0.7" stop-color="#ECBE01"/>
<stop offset="0.8" stop-color="#E6A301"/>
<stop offset="0.9" stop-color="#DD7D01"/>
<stop offset="1" stop-color="#D34F01"/>
</linearGradient>
<linearGradient id="paint5_linear_11_2331" x1="25.7321" y1="12.7075" x2="3.1686" y2="13.5242" gradientUnits="userSpaceOnUse">
<stop stop-color="#F2D501"/>
<stop offset="0.65" stop-color="#DE7E01"/>
<stop offset="1" stop-color="#D34F01"/>
</linearGradient>
<radialGradient id="paint6_radial_11_2331" cx="0" cy="0" r="1" gradientUnits="userSpaceOnUse" gradientTransform="translate(6.13964 1.13033) scale(29.6658 29.6658)">
<stop stop-color="#F2D501"/>
<stop offset="0.65" stop-color="#DE7E01"/>
<stop offset="1" stop-color="#D34F01"/>
</radialGradient>
<linearGradient id="paint7_linear_11_2331" x1="19.5144" y1="15.9524" x2="22.1186" y2="15.9524" gradientUnits="userSpaceOnUse">
<stop offset="0.2" stop-color="#D34F01"/>
<stop offset="0.26" stop-color="#DB7201"/>
<stop offset="0.36" stop-color="#E59C01"/>
<stop offset="0.44" stop-color="#ECBB01"/>
<stop offset="0.51" stop-color="#F0CE01"/>
<stop offset="0.56" stop-color="#F2D501"/>
<stop offset="0.62" stop-color="#F0CF01"/>
<stop offset="0.7" stop-color="#ECBE01"/>
<stop offset="0.8" stop-color="#E6A301"/>
<stop offset="0.9" stop-color="#DD7D01"/>
<stop offset="1" stop-color="#D34F01"/>
</linearGradient>
<linearGradient id="paint8_linear_11_2331" x1="16.5599" y1="20.9369" x2="9.87087" y2="22.3577" gradientUnits="userSpaceOnUse">
<stop stop-color="#F2D501"/>
<stop offset="0.65" stop-color="#DE7E01"/>
<stop offset="1" stop-color="#D34F01"/>
</linearGradient>
<linearGradient id="paint9_linear_11_2331" x1="16.1848" y1="3.36776" x2="19.4829" y2="3.36776" gradientUnits="userSpaceOnUse">
<stop stop-color="#F2D501"/>
<stop offset="0.65" stop-color="#DE7E01"/>
<stop offset="1" stop-color="#D34F01"/>
</linearGradient>
<linearGradient id="paint10_linear_11_2331" x1="2.17267" y1="18.1185" x2="4.95783" y2="18.1185" gradientUnits="userSpaceOnUse">
<stop stop-color="#F2D501"/>
<stop offset="0.65" stop-color="#DE7E01"/>
<stop offset="1" stop-color="#D34F01"/>
</linearGradient>
<radialGradient id="paint11_radial_11_2331" cx="0" cy="0" r="1" gradientUnits="userSpaceOnUse" gradientTransform="translate(8.59448 10.5531) scale(3.74453)">
<stop stop-color="#F2D501"/>
<stop offset="0.65" stop-color="#DE7E01"/>
<stop offset="1" stop-color="#D34F01"/>
</radialGradient>
<radialGradient id="paint12_radial_11_2331" cx="0" cy="0" r="1" gradientUnits="userSpaceOnUse" gradientTransform="translate(14.4454 8.57789) scale(6.55957 6.55957)">
<stop stop-color="#F2D501"/>
<stop offset="0.65" stop-color="#DE7E01"/>
<stop offset="1" stop-color="#D34F01"/>
</radialGradient>
<linearGradient id="paint13_linear_11_2331" x1="10.0252" y1="10.8369" x2="11.7946" y2="13.8428" gradientUnits="userSpaceOnUse">
<stop offset="0.2" stop-color="#D34F01"/>
<stop offset="0.26" stop-color="#DB7201"/>
<stop offset="0.36" stop-color="#E59C01"/>
<stop offset="0.44" stop-color="#ECBB01"/>
<stop offset="0.51" stop-color="#F0CE01"/>
<stop offset="0.56" stop-color="#F2D501"/>
<stop offset="0.62" stop-color="#F0CF01"/>
<stop offset="0.7" stop-color="#ECBE01"/>
<stop offset="0.8" stop-color="#E6A301"/>
<stop offset="0.9" stop-color="#DD7D01"/>
<stop offset="1" stop-color="#D34F01"/>
</linearGradient>
</defs>
</svg>
