<svg width="48" height="48" viewBox="0 0 48 48" fill="none" xmlns="http://www.w3.org/2000/svg">
<g style="mix-blend-mode:multiply" opacity="0.5">
<path d="M47.5414 22.6237L26.9215 39.217H12.0049L10.259 34.0364V6.76383C10.259 6.48569 10.4842 6.26257 10.768 6.26257H37.2052L41.0732 9.71329L42.0355 10.5691L47.5444 22.6206L47.5414 22.6237Z" fill="#9E3A12"/>
</g>
<path d="M9.3306 19.121L0 9.75001L12.7698 7.92532L39.1669 12.0546L45.2465 21.4898L35.0985 26.3342L9.3306 19.121Z" fill="url(#paint0_linear_203_3)"/>
<path d="M9.33063 19.121L12.8963 47.5184L34.8733 24.4698L9.33063 19.121Z" fill="url(#paint1_linear_203_3)"/>
<path d="M0.117188 9.65829L12.8963 47.5183L9.33058 19.121L0.117188 9.65829Z" fill="url(#paint2_linear_203_3)"/>
<path d="M0.117188 9.6583L11.317 1.47928L17.4336 6.93196L9.33058 19.121L0.117188 9.6583Z" fill="url(#paint3_linear_203_3)"/>
<path d="M31.647 10.9115L34.8733 24.4698L9.33063 19.1211L17.4336 6.93201L31.647 10.9115Z" fill="url(#paint4_linear_203_3)"/>
<path d="M39.7375 9.43521L45.2465 21.4898L34.8733 24.4698L31.6469 10.9115L39.7375 9.43521Z" fill="url(#paint5_linear_203_3)"/>
<path d="M17.4336 6.93199L11.317 1.47931L19.4107 0L33.621 3.97948L39.7376 9.43521L31.6469 10.9115L17.4336 6.93199Z" fill="url(#paint6_linear_203_3)"/>
<path d="M45.2465 21.4897L12.8963 47.5183L34.8733 24.4698L45.2465 21.4897Z" fill="url(#paint7_linear_203_3)"/>
<path d="M17.4336 6.93199L11.317 1.47931L19.4107 0L33.621 3.97948L39.7376 9.43521L31.6469 10.9115L17.4336 6.93199Z" fill="url(#paint8_linear_203_3)"/>
<g style="mix-blend-mode:screen" opacity="0.7">
<path d="M39.7376 9.43216L39.3243 9.50857L33.5007 10.5722L32.3533 10.78L31.6469 10.9084L20.7216 7.85198L17.4336 6.93505L11.9987 2.08754L11.317 1.47931L14.5742 0.88331L15.3762 0.739657L19.4107 0L21.2244 0.507368L33.6241 3.97948L39.7376 9.43216Z" fill="#F191FF"/>
</g>
<path style="mix-blend-mode:screen" opacity="0.5" d="M39.3243 9.50857L33.5007 10.5722L15.3762 0.739657L19.4107 0L21.2244 0.507368C25.9746 2.90361 32.8592 6.31765 39.3243 9.50857V9.50857Z" fill="url(#paint9_radial_203_3)"/>
<path style="mix-blend-mode:screen" opacity="0.5" d="M32.3533 10.78L31.6469 10.9084L20.7216 7.85197L11.9987 2.08754L11.317 1.47931L14.5742 0.883301L32.3533 10.78Z" fill="url(#paint10_radial_203_3)"/>
<g style="mix-blend-mode:screen" opacity="0.7">
<path d="M0.117188 9.65833C0.117188 9.65833 8.1924 17.6937 9.36759 17.2169C10.5428 16.7401 17.2053 7.02368 17.2053 7.02368L10.5397 18.522C10.5397 18.522 16.2769 20.3864 19.7315 21.0772C23.1892 21.771 10.259 19.8913 10.259 19.8913L10.2528 26.4779L8.87716 19.6162L0.117188 9.65833Z" fill="#F6C2FF"/>
</g>
<g style="mix-blend-mode:screen" opacity="0.18">
<path d="M16.9308 6.61108L26.2768 11.0918C28.4946 12.1555 30.2527 13.9679 31.2367 16.2052L34.8733 24.4698L31.6469 10.9084L16.9308 6.61108V6.61108Z" fill="#F191FF"/>
</g>
<g style="mix-blend-mode:screen" opacity="0.7">
<path d="M11.4774 1.59851L17.6927 6.40934L31.6469 10.9084L17.5508 7.09398L11.4774 1.59851Z" fill="#F6C2FF"/>
</g>
<path style="mix-blend-mode:multiply" opacity="0.5" d="M10.4194 27.7891L13.5008 40.9929C13.763 42.1207 15.1418 42.5639 16.0239 41.8029L29.0991 30.5277L12.8963 47.5184L10.4163 27.7891H10.4194Z" fill="url(#paint11_linear_203_3)"/>
<path style="mix-blend-mode:multiply" opacity="0.22" d="M39.7375 9.43213C36.2397 10.835 34.0652 14.3224 34.3613 18.0482L34.8733 24.4698L31.6469 10.9084L39.7375 9.43213V9.43213Z" fill="url(#paint12_linear_203_3)"/>
<g style="mix-blend-mode:screen" opacity="0.6">
<path d="M31.6469 10.9084L32.9178 10.5997C35.4871 9.97619 36.4032 6.82806 34.5649 4.94224L33.621 3.97641L39.7345 9.43215L31.6439 10.9084H31.6469Z" fill="#F6C2FF"/>
</g>
<path d="M31.2675 23.7485C32.4921 24.3536 32.8067 25.9461 31.8999 26.9638L23.3003 36.61L34.8733 24.4728L31.2675 23.7515V23.7485Z" fill="#F6C2FF"/>
<g style="mix-blend-mode:screen" opacity="0.8">
<path d="M17.4336 6.93501L9.3275 19.121L9.20412 18.9926L4.28126 13.9373L0.117188 9.6583L6.03634 5.3365L11.1196 1.62293L11.317 1.47928L17.4336 6.93501Z" fill="#F191FF"/>
</g>
<path style="mix-blend-mode:screen" opacity="0.5" d="M17.5508 7.09396L13.4114 12.2441L3.35903 13.161L0.188171 9.31599L17.5508 7.09396Z" fill="url(#paint13_radial_203_3)"/>
<g style="mix-blend-mode:screen" opacity="0.18">
<path d="M34.8733 24.4698C36.8875 24.0021 38.1706 26.542 36.5852 27.8594L13.1862 47.2861L45.2465 21.4897L34.8733 24.4728V24.4698Z" fill="#F191FF"/>
</g>
<defs>
<linearGradient id="paint0_linear_203_3" x1="302.568" y1="36.7724" x2="311.679" y2="68.1961" gradientUnits="userSpaceOnUse">
<stop stop-color="#E737FA"/>
<stop offset="1" stop-color="#670EBA"/>
</linearGradient>
<linearGradient id="paint1_linear_203_3" x1="16.343" y1="-1.25153" x2="25.7297" y2="45.973" gradientUnits="userSpaceOnUse">
<stop stop-color="#E737FA"/>
<stop offset="1" stop-color="#670EBA"/>
</linearGradient>
<linearGradient id="paint2_linear_203_3" x1="1.39582" y1="28.3914" x2="36.6623" y2="29.7786" gradientUnits="userSpaceOnUse">
<stop stop-color="#E737FA"/>
<stop offset="1" stop-color="#670EBA"/>
</linearGradient>
<linearGradient id="paint3_linear_203_3" x1="5.50986" y1="2.52919" x2="29.102" y2="44.9995" gradientUnits="userSpaceOnUse">
<stop stop-color="#E737FA"/>
<stop offset="1" stop-color="#670EBA"/>
</linearGradient>
<linearGradient id="paint4_linear_203_3" x1="18.3658" y1="-2.54229" x2="24.6888" y2="39.445" gradientUnits="userSpaceOnUse">
<stop stop-color="#E737FA"/>
<stop offset="1" stop-color="#670EBA"/>
</linearGradient>
<linearGradient id="paint5_linear_203_3" x1="51.1105" y1="6.79595" x2="35.4193" y2="18.6628" gradientUnits="userSpaceOnUse">
<stop stop-color="#E737FA"/>
<stop offset="1" stop-color="#670EBA"/>
</linearGradient>
<linearGradient id="paint6_linear_203_3" x1="425.913" y1="48.2883" x2="430.158" y2="66.8964" gradientUnits="userSpaceOnUse">
<stop stop-color="#E737FA"/>
<stop offset="1" stop-color="#670EBA"/>
</linearGradient>
<linearGradient id="paint7_linear_203_3" x1="33.8231" y1="37.9591" x2="29.8509" y2="35.0179" gradientUnits="userSpaceOnUse">
<stop stop-color="#E737FA"/>
<stop offset="1" stop-color="#670EBA"/>
</linearGradient>
<linearGradient id="paint8_linear_203_3" x1="425.913" y1="48.2883" x2="430.158" y2="66.8964" gradientUnits="userSpaceOnUse">
<stop stop-color="#E737FA"/>
<stop offset="1" stop-color="#670EBA"/>
</linearGradient>
<radialGradient id="paint9_radial_203_3" cx="0" cy="0" r="1" gradientUnits="userSpaceOnUse" gradientTransform="translate(27.2822 5.45121) rotate(11.3386) scale(9.31803 9.23984)">
<stop stop-color="#E9D992"/>
<stop offset="0.39" stop-color="#91875B"/>
<stop offset="1"/>
</radialGradient>
<radialGradient id="paint10_radial_203_3" cx="0" cy="0" r="1" gradientUnits="userSpaceOnUse" gradientTransform="translate(21.9306 5.65975) rotate(11.3386) scale(8.27276 8.20334)">
<stop stop-color="#E9D992"/>
<stop offset="0.39" stop-color="#91875B"/>
<stop offset="1"/>
</radialGradient>
<linearGradient id="paint11_linear_203_3" x1="8.62773" y1="36.543" x2="27.0983" y2="40.3151" gradientUnits="userSpaceOnUse">
<stop stop-color="#E737FA"/>
<stop offset="1" stop-color="#670EBA"/>
</linearGradient>
<linearGradient id="paint12_linear_203_3" x1="30.6833" y1="15.6256" x2="38.1603" y2="17.1525" gradientUnits="userSpaceOnUse">
<stop stop-color="#E737FA"/>
<stop offset="1" stop-color="#670EBA"/>
</linearGradient>
<radialGradient id="paint13_radial_203_3" cx="0" cy="0" r="1" gradientUnits="userSpaceOnUse" gradientTransform="translate(11.4544 -5.0976) rotate(11.3386) scale(20.5046 20.3325)">
<stop stop-color="#E9D992"/>
<stop offset="0.39" stop-color="#91875B"/>
<stop offset="1"/>
</radialGradient>
</defs>
</svg>
