<svg width="53" height="175" viewBox="0 0 53 175" fill="none" xmlns="http://www.w3.org/2000/svg">
<path d="M19.18 121.89C19.18 121.89 18.63 128.75 19.45 134.78C20.27 140.81 22.19 146.02 22.19 146.02C23.12 147.96 24.05 149.9 24.98 151.84C26.15 154.28 26.96 157.13 28.51 159.35C28.59 159.46 28.67 159.57 28.79 159.64C28.94 159.72 29.13 159.71 29.3 159.7C31.08 159.52 32.87 159 34.56 158.43C34.92 158.31 39.28 156.2 38.99 155.96C36.79 154.18 36.26 151.6 35.29 149.07C34.23 146.32 33.34 143.47 32.89 140.55C31.79 133.42 30.15 121.9 30.15 121.9C30.15 121.9 21.65 120.8 19.18 121.9V121.89Z" fill="#974C34"/>
<path d="M17.2601 107.63L16.1701 109.55L15.0701 114.21L22.4701 114.76L27.6801 114.48L32.0701 115.58L30.9701 112.02L28.7801 109L17.2601 107.63Z" fill="#F6A870"/>
<path d="M10.96 135.6L5.47998 125.45L8.49998 118.05L12.61 113.66L15.08 114.21C15.08 114.21 28.52 113.94 30.98 115.31C33.45 116.68 38.38 118.6 38.38 118.6L41.4 122.16C41.4 122.16 48.26 127.64 49.63 133.68C51 139.72 51.82 144.65 51.82 144.65C51.82 144.65 51 150.41 49.9 152.33C48.8 154.25 45.51 157.81 45.51 157.81L41.4 160.55L33.72 164.66L28.51 166.03L25.22 161.37C25.22 161.37 26.83 157.88 26.86 157.81C26.98 157.54 28.39 159.63 28.42 159.65C29.18 160.3 29.62 159.86 30.4 159.56C32.62 158.72 34.89 158.27 37.01 157.09C37.26 156.95 37.53 156.78 37.59 156.5C37.62 156.36 37.59 156.21 37.55 156.07C37.33 155.34 36.93 153.95 36.46 153.41C38.39 152.44 40.3 151.4 42.22 150.4L45.24 147.11C45.24 147.11 47.16 142.17 45.51 135.32C43.86 128.47 39.48 126.82 39.48 126.82L31.25 124.9L30.15 121.88H19.18L18.36 124.9L14.52 125.72C14.52 125.72 10.96 133.4 10.96 135.59V135.6Z" fill="#F2864C"/>
<path d="M28.63 165.65V168.85L28.74 170.51L29.29 171.28L32.71 171.17L32.93 172.27L34.25 173.59C34.25 173.59 36.68 173.7 38.55 172.82C40.43 171.94 43.63 169.51 43.63 169.51L43.3 168.08L42.86 167.2L45.4 164L43.74 162.12L41.38 160.55C41.38 160.55 35.46 163.77 34.25 164.21C33.04 164.65 28.62 165.64 28.62 165.64L28.63 165.65Z" fill="#974C34"/>
<path d="M1.09998 2.02002C1.09998 2.02002 11.25 16.43 15.91 29.21C20.57 41.99 22.2 52.34 22.2 52.34C22.2 52.34 26.26 70.4 27.27 82.17C28.28 93.94 29.1 100.03 29.1 100.03L28.78 109L17.94 107.54C17.94 107.54 18.55 87.25 16.52 70C14.49 52.75 8.80998 29.21 8.80998 29.21L1.09998 2.02002Z" fill="#C0D0EB"/>
<path d="M6.34006 20.2C6.34006 20.2 16.1501 40.33 20.9401 61.22C25.7301 82.11 25.4701 94.19 25.4701 94.19V108.28L28.7801 109C28.7801 109 31.2701 88.01 22.2001 52.35C13.1401 16.68 12.3801 20.96 12.3801 20.96L6.09006 8.88001L0.560059 0.320007L6.34006 20.2Z" fill="#DCEEFB"/>
<path d="M11.18 123C11.18 123 10.36 126.4 10.36 128.52C10.36 130.64 11.42 135.8 11.42 135.8C11.42 135.8 12.24 130.17 12.95 128.64C13.65 127.11 14.53 125.73 14.53 125.73L18.37 124.91L18.35 121.6L11.19 123.01L11.18 123Z" fill="#B86E41"/>
<path d="M30.55 121.01L41.11 122.77C41.11 122.77 46.27 125.94 48.03 134.51C49.79 143.08 44.04 150.94 44.04 150.94C44.04 150.94 48.03 142.49 45.5 135.33C42.98 128.17 39.47 126.83 39.47 126.83L31.24 124.91C31.24 124.91 29.95 121.37 30.54 121.01H30.55Z" fill="#B86E41"/>
<path d="M36.88 152.81L37.55 156.07C37.55 156.07 40.99 154.92 42.51 152.57C44.04 150.22 45.23 147.11 45.23 147.11L41.34 150.58L36.88 152.81Z" fill="#8A3E2A"/>
<path d="M26.5601 121.48C26.5601 121.48 27.9701 134.51 30.6701 144.01C33.3701 153.52 35.2501 157.62 35.2501 157.62L38.1801 156.21L35.0101 148.58C35.0101 148.58 31.9601 135.55 31.2501 131.21C30.5501 126.87 30.5501 121 30.5501 121L26.5601 121.47V121.48Z" fill="#7C2B1B"/>
<path d="M36.41 163.73L39.58 167.13C39.58 167.13 39.11 168.19 35.71 169.59C32.31 171 29.96 171.12 29.96 171.12C29.96 171.12 35.12 170.77 39.58 169.01C44.04 167.25 45.4 164 45.4 164L41.92 160.92L36.4 163.74L36.41 163.73Z" fill="#7C2B1B"/>
<path d="M32.93 172.27L32.71 171.17L38.76 169.83C38.76 169.83 41.11 170.06 40.05 171.24C38.99 172.41 37.94 172.88 37.94 172.88L43.64 169.51C43.64 169.51 43.75 168.96 43.31 168.08L42.87 167.2L40.17 168.9L31.25 171.36C31.25 171.36 33.56 170.61 32.94 172.28L32.93 172.27Z" fill="#7C2B1B"/>
<path d="M30.08 165.72L30.2 169.24C30.2 169.24 30.08 169.59 30.67 169.83C31.26 170.07 33.84 169.48 34.89 169.13C35.95 168.78 37.59 167.84 37.59 167.84C37.59 167.84 38.06 167.49 37.71 167.02C37.36 166.55 35.36 163.85 35.36 163.85L30.08 165.73V165.72Z" fill="#AF735C"/>
<path d="M28.42 159.66L26.91 161.03L29.96 164.32C29.96 164.32 36.18 162.32 40.29 159.63C44.4 156.94 45.92 155.64 46.86 154C47.8 152.36 48.27 151.65 48.27 151.65L44.28 150.48C44.28 150.48 41.35 155.41 36.77 157.52C32.19 159.63 28.42 159.67 28.42 159.67V159.66Z" fill="#FAC255"/>
<path d="M12.6001 113.66L11.1801 121.01C11.1801 121.01 17.4001 118.9 24.4401 118.66C31.4801 118.43 36.1801 119.36 36.1801 119.36C36.1801 119.36 32.3101 115.37 28.3201 115.02C24.3301 114.67 17.7601 114.79 17.7601 114.79C17.7601 114.79 13.4401 115 12.6101 113.66H12.6001Z" fill="#FAC255"/>
<path opacity="0.55" d="M5.67004 126.06C6.55004 123.16 9.52004 122.9 11.16 120.88C11.82 120.06 11.58 119.12 11.68 118.17C11.84 116.69 12.34 115.17 12.68 113.72C11.33 114.51 10.1 116.15 9.30004 117.49C8.24004 119.25 6.84004 122.18 6.84004 122.18L5.67004 126.05V126.06Z" fill="#FAC255"/>
<path d="M12.1201 117.37C12.1201 117.37 12.0001 119.25 12.7101 119.48C13.4101 119.71 17.9901 118.66 21.3901 118.66H28.9001C28.9001 118.66 20.9201 119.13 16.4601 119.72C12.0001 120.31 7.31006 123.83 7.31006 123.83L10.2401 121.13C11.1801 120.54 11.8801 120.78 12.1201 117.37Z" fill="white"/>
<path d="M16.11 122.77L14.52 125.73L18.36 124.91C18.36 124.91 18.69 121.25 18.34 121.6C17.99 121.95 16.11 122.77 16.11 122.77Z" fill="#8A3E2A"/>
<path d="M38.99 122.53L37.23 126.29L31.25 124.9L30.15 121.89L38.99 122.53Z" fill="#8A3E2A"/>
<path d="M17.05 108.69L30.08 110.92L28.7801 109L17.26 107.63L17.05 108.69Z" fill="#FAC255"/>
<path d="M22.6801 109.74C22.6801 109.74 24.4401 112.09 23.7401 112.91C23.0401 113.73 16.7001 114.44 16.7001 114.44L21.0401 114.56C21.0401 114.56 25.5001 114.44 27.2601 114.68C29.0201 114.91 32.0701 115.59 32.0701 115.59L29.4901 110.57L22.6801 109.75V109.74Z" fill="#B86E41"/>
<path d="M12.12 42.87C12.12 42.87 16.96 58.85 18.66 79.68C20.36 100.51 19.87 107.77 19.87 107.77L17.93 107.29C17.93 107.29 20.59 84.53 12.12 42.88V42.87Z" fill="white"/>
<path d="M30.67 159.94C34.38 159.49 37.57 156.99 41.26 156.38C41.54 156.33 41.88 156.33 42.02 156.57C42.15 156.8 42 157.09 41.85 157.31C41.08 158.41 40.2 159.43 39.23 160.36C42.84 157.89 46.62 155.22 48.37 151.21C47.42 152.58 46 153.61 44.4 154.08C44.16 152.69 44.82 151.32 45.28 149.98C45.78 148.5 46.04 146.95 46.04 145.39C45.18 149.8 42.6 153.86 38.97 156.51C37.48 157.6 35.72 158.48 33.87 158.38L30.67 159.94Z" fill="white"/>
<path opacity="0.44" d="M20.41 115.4C21.1 115.54 21.79 115.68 22.48 115.82C22.74 115.87 23 115.93 23.21 116.11C24.1 116.9 23.15 118.09 22.36 118.43C22.05 118.57 21.72 118.68 21.45 118.88C23.19 118.93 24.89 118.64 26.65 118.73C28.43 118.83 30.24 119.02 32.01 118.69C31.22 118.52 30.44 118.3 29.63 118.26C28.77 118.21 27.92 118.13 27.07 118.02C26.8 117.99 26.53 117.94 26.29 117.81C25.96 117.62 25.74 117.25 25.74 116.88C25.74 116.24 26.67 115.94 27.18 115.76C27.86 115.52 28.58 115.41 29.3 115.36C28.95 115.39 28.47 115.17 28.11 115.12C27.68 115.06 27.26 115.02 26.83 115.01C26.08 114.99 25.36 114.87 24.61 114.87C22.82 114.86 21.03 115.01 19.26 115.33C20.41 115.51 21.55 115.68 22.7 115.86L20.41 115.41V115.4Z" fill="white"/>
<path d="M28.7601 158.26C23.3201 146.59 19.4201 134.62 19.3701 121.63C19.3701 120.78 18.1001 120.79 18.0601 121.63C17.3901 134.69 22.0501 147.34 27.5001 158.99C27.9001 159.84 29.1601 159.1 28.7601 158.25V158.26Z" fill="#611D0A"/>
<path d="M0.0500346 0.480011C3.73003 8.43001 9.90003 14.91 13.05 23.19C16.41 31.99 18.9 41.2 21.05 50.35C25.52 69.35 28.4 88.75 28.15 108.31C28.14 109.24 29.59 109.24 29.6 108.31C29.8 88.67 26.91 69.08 22.16 50.05C19.82 40.67 17.22 31.09 13.6 22.11C10.46 14.32 5.22003 7.14001 0.600035 0.160011C0.370035 -0.199989 -0.129965 0.110011 0.0500346 0.480011Z" fill="#A7B5CC"/>
<path d="M15.39 113.54C15.63 112.54 15.89 111.55 16.23 110.59C16.57 109.62 17.07 108.7 17.34 107.72C17.41 107.45 17.04 107.3 16.89 107.53C15.84 109.18 15.14 111.56 14.95 113.49C14.93 113.74 15.32 113.79 15.38 113.55L15.39 113.54Z" fill="#FAC255"/>
<path d="M28.52 109.38C28.94 110.32 29.61 111.1 30.09 112.01C30.65 113.06 30.91 114.16 31.32 115.26C31.62 116.04 33.05 116.03 32.92 115.04C32.64 112.89 31.22 109.7 29.13 108.76C28.71 108.57 28.32 108.95 28.51 109.38H28.52Z" fill="#824D29"/>
<path d="M5.71006 126.34C6.86006 121.37 9.41006 117.75 12.6101 113.91C12.8501 113.62 12.4801 113.23 12.1901 113.49C8.51006 116.79 6.24006 121.43 5.20006 126.2C5.13006 126.54 5.64006 126.68 5.72006 126.34H5.71006Z" fill="#C0D0EB"/>
<path d="M12.3 113.86C13.88 114.95 15.76 115.13 17.64 115.17C20.43 115.24 23.21 115.13 26 115.35C32.03 115.82 36.58 117.72 40.74 122.09C41.13 122.5 41.76 121.98 41.5 121.5C39.32 117.47 34.14 115.46 29.88 114.68C24.1 113.63 18.1 115.03 12.44 113.52C12.23 113.46 12.12 113.75 12.29 113.86H12.3Z" fill="#C0D0EB"/>
<path d="M6 19.26C19.45 47.45 25.72 77.63 25.51 108.81C25.51 108.97 25.75 108.97 25.76 108.81C26.86 78.15 19.63 46.67 6.06 19.23C6.04 19.19 5.98 19.23 6 19.27V19.26Z" fill="white"/>
<path d="M37.3 154.2C35.43 148.9 34 143.53 33 137.99C32.01 132.49 31.9 126.74 30.62 121.31C30.48 120.73 29.6 120.87 29.59 121.45C29.55 126.99 30.76 132.89 31.8 138.32C32.86 143.84 34.35 149.33 36.76 154.43C36.9 154.73 37.42 154.52 37.31 154.2H37.3Z" fill="#430B00"/>
<path d="M18.11 107.25C18.67 89.31 17.41 71.32 14.49 53.61C11.49 35.41 6.23001 17.96 0.730014 0.390037C0.590014 -0.0599631 -0.119986 0.130037 0.0200136 0.590037C5.41001 17.82 10.68 34.97 13.74 52.8C16.83 70.78 18.05 89.02 17.72 107.25C17.72 107.5 18.1 107.5 18.11 107.25Z" fill="#7F8B9E"/>
<path d="M11.02 123.22C9.66002 127.08 9.77002 131.26 10.87 135.17C11.01 135.65 11.76 135.45 11.62 134.96C10.52 131.02 10.68 127.33 11.62 123.39C11.71 123 11.15 122.85 11.02 123.22Z" fill="#8B4720"/>
<path d="M5.30001 126.24C6.84001 129.7 9.02001 133.01 10.92 136.28C11.15 136.67 11.76 136.32 11.53 135.92C9.64001 132.64 7.87001 129.09 5.64001 126.03C5.49001 125.82 5.19001 126 5.29001 126.23L5.30001 126.24Z" fill="#9D572D"/>
<path d="M11.36 135.74C12.25 131.04 13.67 126.66 16.16 122.54C16.22 122.44 16.07 122.35 16.01 122.45C13.48 126.5 11.68 130.93 11.13 135.71C11.12 135.84 11.33 135.87 11.36 135.74Z" fill="#430B00"/>
<path d="M30.5201 124.81C33.4801 125.69 36.5201 126.37 39.5201 127.11C39.7301 127.16 39.8201 126.83 39.6101 126.78C36.6101 126.03 33.6101 125.21 30.5801 124.59C30.4401 124.56 30.3901 124.76 30.5201 124.8V124.81Z" fill="#430B00"/>
<path d="M40.67 122.82C51.69 130.17 55.1 150.03 43.68 158.45C43.18 158.82 43.62 159.64 44.18 159.3C57.34 151.35 52.5 129.11 41.25 121.82C40.62 121.41 40.05 122.41 40.67 122.82Z" fill="#FAC255"/>
<path d="M39.91 127.26C43.65 131.16 45.93 135.24 45.81 140.81C45.7 146.22 43.8 151.93 38.9 154.66C38.44 154.92 38.75 155.64 39.26 155.51C44.65 154.1 46.48 146.46 46.7 141.7C46.94 136.4 44.92 129.88 40.08 127.05C39.95 126.97 39.81 127.15 39.92 127.26H39.91Z" fill="#8B4720"/>
<path d="M14.78 125.86C16.09 125.6 17.63 125.4 18.85 124.86C18.99 124.8 18.92 124.58 18.77 124.58C17.44 124.64 15.96 125.16 14.68 125.52C14.46 125.58 14.56 125.9 14.77 125.85L14.78 125.86Z" fill="#430B00"/>
<path d="M26.47 158.54C26.2 159.09 25.94 159.63 25.67 160.18C25.42 160.69 25.21 161.04 25.23 161.61C25.23 161.74 25.39 161.86 25.51 161.77C25.96 161.43 26.1 161.09 26.35 160.57C26.61 160.02 26.88 159.47 27.14 158.93C27.36 158.48 26.69 158.09 26.47 158.54Z" fill="#8B4720"/>
<path d="M25.2901 160.84C25.3301 161.99 25.6001 162.95 26.2701 163.93C26.7601 164.66 27.5301 165.7 28.4701 165.76C28.7001 165.77 28.8201 165.5 28.7201 165.32C28.3301 164.57 27.4201 164.11 26.9301 163.38C26.4301 162.63 26.0401 161.65 25.8501 160.76C25.7801 160.44 25.2801 160.51 25.2901 160.84Z" fill="#8B4720"/>
<path d="M28.18 160.08C33.17 159.72 38.79 157.78 41.92 153.64C42.21 153.25 41.62 152.91 41.3 153.16C37.22 156.35 33.49 158.93 28.18 159.54C27.85 159.58 27.83 160.1 28.18 160.08Z" fill="#8B4720"/>
<path d="M36.95 153.22C39.87 151.9 43.34 149.76 45.24 147.1C45.33 146.98 45.15 146.88 45.05 146.95C43.63 148.05 42.44 149.39 40.98 150.46C39.66 151.43 38.28 152.26 36.86 153.07C36.76 153.13 36.85 153.27 36.95 153.22Z" fill="#F2864C"/>
<path d="M27.3701 161.57C28.3601 162.74 29.2901 164.03 30.3901 165.1C30.4401 165.15 30.5301 165.08 30.4901 165.02C29.6201 163.76 28.4801 162.62 27.4901 161.45C27.4201 161.37 27.3001 161.49 27.3701 161.57Z" fill="black"/>
<path d="M26.38 121.79C28.08 134.12 30.04 146.6 35.19 158.03C35.25 158.15 35.43 158.05 35.37 157.92C30.21 146.46 28.38 134.08 26.49 121.76C26.48 121.69 26.37 121.72 26.38 121.79Z" fill="#611D0A"/>
<path d="M39.4201 127.38C40.2201 126.18 40.7401 124.7 41.3501 123.4C41.4401 123.22 41.1601 123.06 41.0801 123.24C40.4701 124.56 39.6701 125.92 39.2701 127.32C39.2401 127.42 39.3701 127.46 39.4301 127.39L39.4201 127.38Z" fill="#430B00"/>
<path d="M28.43 166.75C28.27 167.65 28.24 168.55 28.35 169.46C28.43 170.18 28.5 170.98 29.01 171.52C29.1 171.62 29.3 171.58 29.33 171.44C29.46 170.73 29.18 170.02 29.11 169.3C29.03 168.48 29.07 167.66 29.14 166.85C29.17 166.45 28.5 166.36 28.43 166.75Z" fill="#430B00"/>
<path d="M29.51 171.86C35.42 171.61 42.2 170.04 45.51 164.67C45.81 164.18 45.05 163.74 44.74 164.22C41.2 169.64 35.22 170.18 29.45 171.41C29.2 171.46 29.26 171.86 29.51 171.85V171.86Z" fill="#430B00"/>
<path d="M41.8501 161.5C43.1101 162.19 44.2901 163.24 45.0601 164.46C45.2701 164.8 45.8001 164.49 45.6001 164.15C44.7701 162.72 43.7101 161.63 42.2401 160.84C41.8101 160.61 41.4201 161.26 41.8501 161.5Z" fill="#430B00"/>
<path d="M32.53 171.92C32.59 172.4 32.76 172.82 33.09 173.18C33.34 173.45 33.87 173.9 34.27 173.73C34.42 173.66 34.51 173.5 34.46 173.34C34.39 173.1 34.11 173.05 33.93 172.94C33.52 172.7 33.28 172.29 33.22 171.83C33.17 171.45 32.49 171.53 32.54 171.92H32.53Z" fill="#430B00"/>
<path d="M33.98 174.07C37.24 173.82 41.75 172.45 43.78 169.69C43.93 169.48 43.65 169.27 43.46 169.37C41.98 170.13 40.74 171.26 39.2 171.96C37.5 172.74 35.73 173.14 33.89 173.42C33.53 173.48 33.61 174.09 33.98 174.07Z" fill="#430B00"/>
<path d="M43.3 169.77C43.73 169.43 43.76 168.87 43.67 168.36C43.6 167.95 43.43 167.23 42.94 167.16C42.8 167.14 42.7 167.21 42.69 167.35C42.65 167.73 43.01 168.08 43.1 168.44C43.21 168.88 43.14 169.34 43.28 169.77C43.28 169.77 43.29 169.78 43.3 169.77Z" fill="#430B00"/>
<path d="M11.83 123.82C16.63 122.44 21.58 121.92 26.56 121.96C31.38 122 36.06 122.92 40.85 123.21C41.62 123.26 41.76 122.07 41.03 121.88C36.28 120.67 30.97 120.47 26.09 120.5C21.14 120.52 16.25 121.18 11.51 122.65C10.76 122.88 11.08 124.04 11.83 123.82Z" fill="#8B4720"/>
<path d="M28.68 166.39C34.39 165.07 41.19 162.69 45.45 158.47C45.81 158.12 45.35 157.54 44.92 157.78C42.36 159.2 40.04 160.99 37.4 162.31C34.54 163.74 31.55 164.81 28.46 165.61C27.96 165.74 28.17 166.5 28.67 166.38L28.68 166.39Z" fill="#8B4720"/>
<path d="M17.02 107.94C19.18 108.38 21.4 108.6 23.58 108.92C25.22 109.16 27.36 109.82 29 109.46C29.26 109.4 29.33 108.99 29.08 108.87C27.52 108.14 25.39 108.24 23.7 108.04C21.52 107.78 19.31 107.39 17.11 107.34C16.77 107.34 16.69 107.87 17.03 107.94H17.02Z" fill="#B86E41"/>
<path style="mix-blend-mode:color-dodge" d="M0.420044 0.910034C0.420044 0.910034 13.59 15.61 19.42 42.72C25.43 70.66 24.99 87.82 24.99 87.82C24.99 87.82 20.68 60.96 18.66 56.91C16.63 52.86 16.13 63.24 16.13 63.24C16.13 63.24 5.99004 12.82 0.420044 0.910034Z" fill="url(#paint0_linear_9_566)"/>
<path style="mix-blend-mode:multiply" d="M22.21 66.79C22.21 66.79 25.25 85.29 25.5 92.63C25.75 99.98 26.01 108.09 26.01 108.09H29.05L27.78 82.5L22.21 66.79Z" fill="url(#paint1_linear_9_566)"/>
<defs>
<linearGradient id="paint0_linear_9_566" x1="29.1" y1="90.59" x2="9.38004" y2="24.07" gradientUnits="userSpaceOnUse">
<stop stop-color="white"/>
<stop offset="0.99"/>
</linearGradient>
<linearGradient id="paint1_linear_9_566" x1="26.45" y1="67.83" x2="23.83" y2="130.57" gradientUnits="userSpaceOnUse">
<stop stop-color="white"/>
<stop offset="0.99"/>
</linearGradient>
</defs>
</svg>
