<svg width="86" height="86" viewBox="0 0 86 86" fill="none" xmlns="http://www.w3.org/2000/svg">
<g clip-path="url(#clip0_5_932)">
<path d="M48.3788 16.9812L46.772 24.5477V30.9298H39.2281V25.536C35.4562 23.7179 29.8662 18.9351 30.8393 11.0668C31.8653 2.65544 42.1627 0.754386 42.5021 0C42.3437 0.754386 34.6188 12.8623 48.3788 16.9812Z" fill="#2D9AFF"/>
<path d="M48.3788 16.9812L46.7719 24.5477V30.9298H43.4149L43.0302 20.8889C24.6382 7.25719 42.0495 0.754386 42.4946 0C42.3361 0.754386 34.6112 12.8623 48.3712 16.9812H48.3788Z" fill="#0BE7CC"/>
<path d="M28.0405 20.4665L32.2198 26.6826L36.8668 31.3296L30.7488 37.4552L26.8033 33.5098C23.2804 34.4679 15.9477 35.3354 11.0669 29.0891C5.8465 22.4128 11.957 13.4054 11.9193 12.8849C12.0853 13.2772 15.4121 27.2861 28.0481 20.4665H28.0405Z" fill="#2D9AFF"/>
<path d="M28.0406 20.4665L32.2199 26.6826L36.8669 31.3296L34.2642 33.9323L26.9769 27.188C4.3302 30.5602 11.8741 13.4809 11.9118 12.8849C12.0777 13.2772 15.4046 27.2861 28.0406 20.4665Z" fill="#0BE7CC"/>
<path d="M16.3174 36.7763L23.2125 37.7193H30.1754V46.7719H24.2007C22.3826 50.5438 18.2712 56.0433 10.403 55.0777C1.99158 54.0442 0 43.6639 0 43.3244C0 43.4828 12.1984 50.5363 16.3174 36.7763Z" fill="#2D9AFF"/>
<path d="M16.3174 36.7763L23.2125 37.7193H30.1754V42.4116L20.5118 42.7963C6.88 61.1882 0 43.777 0 43.3319H0C0 43.4903 12.1984 50.5438 16.3174 36.7838V36.7763Z" fill="#0BE7CC"/>
<path d="M19.086 57.7407L25.2568 53.5162L29.9039 48.8691L36.0295 54.9872L32.084 58.9402C33.027 62.4481 33.9549 69.8411 27.7086 74.722C21.0323 79.9423 12.0702 73.877 11.5572 73.9223C11.9495 73.7563 25.9132 70.3842 19.101 57.7407H19.086Z" fill="#2D9AFF"/>
<path d="M19.0859 57.7407L25.2568 53.5162L29.9038 48.8691L32.6045 51.5623L25.8603 58.8497C29.2249 81.4963 12.1456 73.9525 11.5496 73.9148C11.9419 73.7488 25.9056 70.3767 19.0935 57.7332L19.0859 57.7407Z" fill="#0BE7CC"/>
<path d="M36.1124 69.5997L37.7193 62.6141V55.8246H46.7719V61.6258C49.0351 63.4439 55.3794 67.6458 54.4063 75.5141C53.3728 83.9255 42.321 86 41.9891 86C42.1475 86 49.8724 73.7186 36.1124 69.5997Z" fill="#2D9AFF"/>
<path d="M36.1124 69.5997L37.7193 62.6141V55.8246H41.0763L41.461 65.4883C59.853 79.12 42.4417 86 41.9966 86C42.1551 86 49.88 73.7186 36.12 69.5997H36.1124Z" fill="#0BE7CC"/>
<path d="M56.3602 66.6877L52.1809 60.5621L47.4434 55.8246L53.569 49.699L57.6125 53.7425C61.1279 52.7995 68.4681 51.8263 73.349 58.0727C78.5693 64.749 72.4588 73.6658 72.5041 74.1788C72.3381 73.7865 69.0113 59.8681 56.3753 66.6877H56.3602Z" fill="#2D9AFF"/>
<path d="M56.3602 66.6878L52.1809 60.5621L47.4434 55.8246L50.1441 53.1239L57.4314 59.8757C80.0781 56.5111 72.5342 73.5904 72.4965 74.1864C72.3306 73.7941 69.0037 59.8757 56.3677 66.6953L56.3602 66.6878Z" fill="#0BE7CC"/>
<path d="M68.9358 49.8046L61.2863 48.2807H55.0777V39.2281H60.298C62.1161 36.9649 66.9895 30.5376 74.8502 31.5032C83.2616 32.5367 85.2531 43.4979 86.0075 43.8298C85.2531 43.6714 73.0547 36.0446 68.9433 49.797L68.9358 49.8046Z" fill="#2D9AFF"/>
<path d="M68.9358 49.8046L61.2863 48.2807H55.0777V44.7502L65.1186 44.3654C78.7503 25.9735 85.2531 43.3847 86.0075 43.8298C85.2531 43.6714 73.0547 36.0446 68.9433 49.797L68.9358 49.8046Z" fill="#0BE7CC"/>
<path d="M65.3072 29.421L59.1363 33.5475L54.3987 38.2926L48.2731 32.167L52.3166 28.1235C51.3737 24.6156 50.4458 17.3131 56.6921 12.4323C63.3684 7.21191 72.3305 13.3677 72.8435 13.33C72.4512 13.4959 58.4875 16.7775 65.2996 29.4135L65.3072 29.421Z" fill="#2D9AFF"/>
<path d="M65.3072 29.421L59.1363 33.5475L54.3988 38.2926L51.7961 35.69L58.5403 28.4026C55.1758 5.75593 72.2551 13.2998 72.8511 13.3375C72.4588 13.5035 58.4951 16.785 65.3072 29.421Z" fill="#0BE7CC"/>
<path d="M42.2456 29.5417C34.3472 29.5417 27.9424 35.9465 27.9424 43.8374C27.9424 51.7282 34.3472 58.1405 42.2456 58.1405C50.144 58.1405 56.5412 51.7433 56.5412 43.8374C56.5412 35.9314 50.1365 29.5417 42.2456 29.5417ZM42.2456 49.8649C38.9188 49.8649 36.2181 47.1642 36.2181 43.8374C36.2181 40.5105 38.9188 37.8098 42.2456 37.8098C45.5724 37.8098 48.2731 40.5105 48.2731 43.8374C48.2731 47.1642 45.5724 49.8649 42.2456 49.8649Z" fill="#2D9AFF"/>
<path d="M42.2456 31.6691C35.524 31.6691 30.0698 37.1158 30.0698 43.8374C30.0698 50.559 35.5165 56.0132 42.2456 56.0132C48.9747 56.0132 54.4139 50.5665 54.4139 43.8374C54.4139 37.1083 48.9672 31.6691 42.2456 31.6691ZM42.2456 52.113C37.674 52.113 33.97 48.409 33.97 43.8374C33.97 39.2658 37.674 35.5618 42.2456 35.5618C46.8172 35.5618 50.5212 39.2733 50.5212 43.8374C50.5212 48.4014 46.8172 52.113 42.2456 52.113Z" fill="#0BE7CC"/>
</g>
<defs>
<clipPath id="clip0_5_932">
<rect width="86" height="86" fill="white"/>
</clipPath>
</defs>
</svg>
