<svg width="105" height="105" viewBox="0 0 105 105" fill="none" xmlns="http://www.w3.org/2000/svg">
<g clip-path="url(#clip0_4_900)">
<path d="M65.17 39.12H39.51L52.34 0L65.17 39.12Z" fill="#5F6063"/>
<path d="M65.17 39.12H52.22V0.47998L65.17 39.12Z" fill="#848891"/>
<path d="M39.22 39.64V65.31L0.0999756 52.47L39.22 39.64Z" fill="#5F6063"/>
<path d="M39.22 39.64V52.12H0L39.22 39.64Z" fill="#848891"/>
<path d="M39.16 65.12H64.82L51.99 104.25L39.16 65.12Z" fill="#5F6063"/>
<path d="M39.16 65.12H52.22V104.81L39.16 65.12Z" fill="#848891"/>
<path d="M65.22 65.65V39.99L104.34 52.82L65.22 65.65Z" fill="#5F6063"/>
<path d="M65.22 65.65V52.12H104.33L65.22 65.65Z" fill="#848891"/>
<path d="M52.17 33.87C41.7 33.87 33.21 42.36 33.21 52.82C33.21 63.28 41.7 71.77 52.17 71.77C62.64 71.77 71.12 63.28 71.12 52.82C71.12 42.36 62.63 33.87 52.17 33.87ZM52.17 60.81C47.76 60.81 44.18 57.23 44.18 52.82C44.18 48.41 47.76 44.83 52.17 44.83C56.58 44.83 60.16 48.41 60.16 52.82C60.16 57.23 56.58 60.81 52.17 60.81Z" fill="#5F6063"/>
<path d="M52.17 36.69C43.26 36.69 36.03 43.91 36.03 52.82C36.03 61.73 43.25 68.96 52.17 68.96C61.09 68.96 68.3 61.74 68.3 52.82C68.3 43.9 61.08 36.69 52.17 36.69ZM52.17 63.79C46.11 63.79 41.2 58.88 41.2 52.82C41.2 46.76 46.11 41.85 52.17 41.85C58.23 41.85 63.14 46.77 63.14 52.82C63.14 58.87 58.23 63.79 52.17 63.79Z" fill="#848891"/>
</g>
<defs>
<clipPath id="clip0_4_900">
<rect width="104.34" height="104.81" fill="white"/>
</clipPath>
</defs>
</svg>
