<svg width="53" height="175" viewBox="0 0 53 175" fill="none" xmlns="http://www.w3.org/2000/svg">
<path d="M14.0799 135.7C14.0799 135.7 15.1799 131.59 16.8199 128.57C18.4699 125.55 21.2099 122.26 21.2099 122.26C21.2099 122.26 18.1899 122.81 25.8699 123.36C33.5499 123.91 40.1299 123.63 42.3199 124.73C44.5099 125.83 49.9999 128.57 49.9999 128.57L52.1899 132.13C52.1899 132.13 43.4199 129.94 34.6399 131.03C25.8699 132.13 20.3799 132.13 14.0699 135.69L14.0799 135.7Z" fill="#F2864C"/>
<path d="M47.5299 166.42C47.5299 166.42 50.2699 167.52 48.8999 168.89C47.5299 170.26 45.6099 171.36 45.6099 171.36L42.5899 173.83C42.5899 173.83 39.2999 174.65 39.0299 173.56C38.7599 172.46 38.2099 171.37 38.2099 171.37C38.2099 171.37 32.7299 157.93 31.0799 151.9C29.4299 145.87 28.3399 140.93 28.3399 140.93L28.0699 131.61L34.6499 131.06H40.6799C40.6799 131.06 40.9499 141.48 42.0499 147.51C43.1499 153.54 45.3399 160.95 45.3399 160.95L47.5299 166.43V166.42Z" fill="#535664"/>
<path d="M39.3 117.33C39.3 117.33 39.3 95.12 35.74 75.92C32.18 56.73 23.95 29.3 23.95 29.3C23.95 29.3 20.39 18.61 16.27 13.12C12.16 7.64999 8.03997 0.23999 8.03997 0.23999C8.03997 0.23999 8.30997 12.58 5.29997 18.34C2.27997 24.1 0.0899658 27.66 0.0899658 27.66C0.0899658 27.66 7.76997 43.29 12.7 58.1C17.64 72.91 21.2 86.62 21.2 86.62L25.31 105.81L26.96 115.96C26.96 115.96 37.93 119.52 39.3 117.33Z" fill="#C0D0EB"/>
<path d="M42.32 124.74C42.32 124.74 41.77 120.63 40.67 119.53C39.57 118.43 39.3 117.34 39.3 117.34L26.96 115.97C26.96 115.97 24.77 117.62 24.49 119.53C24.22 121.45 24.22 123.92 24.22 123.92H34.37C34.37 123.92 40.95 123.92 42.32 124.74Z" fill="#F6A870"/>
<path d="M15.94 24.64C22.51 38.23 27.5 52.65 30.55 67.45C35.33 89.24 35.08 101.84 35.08 101.84V116.55L38.39 117.3C38.39 117.3 40.88 95.4 31.81 58.17C22.76 20.95 22 25.42 22 25.42L15.71 12.81C14.47 11.25 13.5 9.28997 12.47 7.57997C11 5.12997 9.08999 2.98997 7.80999 0.409973C9.11999 10.01 6.33999 20.09 0.299988 27.67C3.18999 25.73 5.41999 21.54 7.02999 18.51C7.51999 17.58 8.07999 16.55 9.06999 16.22C9.94999 15.92 10.95 16.3 11.64 16.92C12.33 17.55 12.78 18.39 13.21 19.22C14.15 21.01 15.06 22.82 15.94 24.64Z" fill="#DCEEFB"/>
<path d="M30.92 117.08C30.92 117.08 36.31 119.02 34.59 120.96C32.86 122.9 29.2 123.76 29.2 123.76H38.04L42.33 124.73C42.33 124.73 42.03 120.67 40.68 119.52C39.33 118.37 38.4 117.3 38.4 117.3L30.92 117.08Z" fill="#B86E41"/>
<path opacity="0.55" d="M21.2 123.33C21.13 126.42 21.68 129.53 22.8 132.41C19.41 133.37 16.22 135.03 13.48 137.25C14.83 132.2 17.3 127.45 20.66 123.44L21.21 123.32L21.2 123.33Z" fill="#FAC255"/>
<path opacity="0.44" d="M24.43 124.07C26.86 124.53 29.29 125 31.73 125.46C32.26 125.56 32.8 125.67 33.26 125.96C33.71 126.25 34.07 126.77 34 127.3C33.95 127.7 33.69 128.03 33.4 128.31C30.97 130.7 27.01 130.31 23.84 131.57C29.73 130.33 35.86 129.09 41.71 130.51C40.04 130.28 38.31 130.02 36.91 129.08C36.73 128.96 36.54 128.81 36.49 128.6C36.37 128.17 36.84 127.82 37.24 127.62C39.18 126.7 41.31 126.18 43.46 126.12C42.68 125.38 41.52 125.24 40.45 125.13C34.83 124.59 29.21 124.05 23.59 123.52L24.42 124.07H24.43Z" fill="white"/>
<path opacity="0.44" d="M15.91 134.5C17.55 130.8 19.19 127.1 20.83 123.39C20.54 123.19 20.17 123.5 19.96 123.79C18.04 126.39 16.38 129.18 15.01 132.1C14.42 133.35 13.88 134.66 13.87 136.04C14.38 135.53 15.1 135.23 15.82 135.22L15.92 134.5H15.91Z" fill="white"/>
<path style="mix-blend-mode:color-dodge" d="M33.71 131.33C35.09 143.83 38.53 156.1 43.86 167.49C45.3 167.37 46.32 165.91 46.47 164.48C46.62 163.05 46.11 161.64 45.65 160.27C42.61 151.37 40.91 142.01 40.6 132.61C40.58 132.08 40.55 131.49 40.19 131.1C39.96 130.84 39.62 130.71 39.29 130.62C37.96 130.24 36.49 130.34 35.22 130.92C34.84 131.09 34.42 131.31 34.02 131.19C33.62 131.07 33.46 130.38 33.86 130.26L33.71 131.33Z" fill="url(#paint0_linear_8_393)"/>
<path d="M29.3199 142.76C29.3199 142.76 35.8999 142.45 38.5299 142.91C41.1599 143.37 41.8599 144.07 41.8599 144.07L41.9399 145.54C41.9399 145.54 37.9199 143.84 34.4299 143.99C30.9499 144.14 29.6299 144.76 29.6299 144.76L29.3199 142.75V142.76Z" fill="#535664"/>
<path d="M31.65 152.38C35 150.73 38.43 149.06 42.14 148.63L42.39 149.3C38.52 150.37 34.56 151.54 31.38 154C31.27 153.48 31.27 152.93 31.38 152.41L31.63 152.39L31.65 152.38Z" fill="#535664"/>
<path d="M37.16 160.19C39.38 160.99 41.73 161.43 44.09 161.48C44.45 161.48 44.81 161.48 45.15 161.62C45.49 161.76 45.78 162.03 45.81 162.39C45.81 162.48 45.81 162.58 45.73 162.64C45.69 162.67 45.63 162.68 45.58 162.69C42.59 163.12 39.59 162.18 36.72 161.25C36.63 161.22 36.53 161.18 36.47 161.11C36.35 160.94 36.5 160.71 36.65 160.55C37.14 160.04 37.64 159.52 38.13 159.01L37.16 160.2V160.19Z" fill="#535664"/>
<path d="M40.15 170.46L39.95 170.68C41.79 169.39 43.76 168.29 45.82 167.37C45.99 167.3 46.19 167.22 46.34 167.32C46.43 167.37 46.48 167.47 46.53 167.56C46.69 167.85 46.85 168.15 47.02 168.44C47.14 168.66 47.26 168.88 47.29 169.12C47.36 169.78 46.76 170.29 46.22 170.68C45.45 171.23 44.68 171.77 43.9 172.32C43.44 172.64 42.98 172.97 42.45 173.16C41.92 173.35 41.31 173.38 40.81 173.11C40.4 172.89 40.11 172.5 39.84 172.12C39.7 171.92 39.55 171.71 39.53 171.47C39.51 171.23 39.66 170.95 39.91 170.93L40.16 170.46H40.15Z" fill="#807E8A"/>
<path style="mix-blend-mode:color-dodge" d="M10.2 4.43996C17.42 14.67 22.61 26.16 26.48 38.03C28.39 43.88 29.98 49.84 31.39 55.83C32.1 58.83 32.75 61.85 33.38 64.87C33.64 66.11 33.99 72.18 34.97 72.96C34.51 72.59 34.25 72.02 33.84 71.6C33.43 71.18 32.69 70.93 32.27 71.34C32.09 71.52 32.01 71.78 31.95 72.03C30.85 76.91 33.07 83.31 34.16 88.06C32.63 82.6 30.89 77.32 29.63 71.79C29.07 69.3 28.44 66.68 26.72 64.79C25.3 63.22 23.37 62.52 21.3 62.37C20.57 62.32 17.16 62.87 16.87 61.85C17.99 65.7 19.3 69.44 20.47 73.26C21.86 77.8 23.04 82.41 24.04 87.05C25.99 96.02 27.3 105.12 28.34 114.24C28.46 115.29 28.16 116.8 27.1 116.69C25.44 101.74 21.32 87.19 17.21 72.72C15.03 65.04 12.39 57.5 9.83 49.93C7.61 43.37 5.91 37 2.48 30.85C1.83 29.68 1.13 28.3 1.65 27.07C3.5 22.71 5.49 18.49 6.74 13.89C7.43 11.36 9.67 3.68996 8 1.45996C8.75 2.44996 9.47 3.44996 10.18 4.45996L10.2 4.43996Z" fill="url(#paint1_linear_8_393)"/>
<path style="mix-blend-mode:multiply" d="M32.04 74.7599C32.04 74.7599 35.08 94.0599 35.33 101.73C35.58 109.4 35.84 117.86 35.84 117.86H38.88L37.61 91.1499L32.04 74.7599Z" fill="url(#paint2_linear_8_393)"/>
<path d="M24.32 122.62C24.58 121.54 24.86 120.48 25.23 119.43C25.6 118.39 26.13 117.39 26.43 116.33C26.51 116.04 26.11 115.88 25.95 116.13C24.81 117.91 24.06 120.48 23.86 122.56C23.83 122.83 24.26 122.88 24.32 122.62Z" fill="#F2864C"/>
<path d="M38.51 118.13C38.96 119.14 39.69 119.99 40.21 120.97C40.82 122.1 41.09 123.3 41.54 124.48C41.86 125.33 43.41 125.31 43.27 124.25C42.97 121.93 41.43 118.48 39.18 117.47C38.72 117.27 38.31 117.68 38.51 118.14V118.13Z" fill="#8B4720"/>
<path d="M13.87 136.45C15.11 131.08 17.87 127.18 21.32 123.02C21.58 122.7 21.18 122.28 20.86 122.56C16.88 126.12 14.44 131.14 13.31 136.29C13.23 136.65 13.78 136.81 13.87 136.44V136.45Z" fill="#F2864C"/>
<path d="M20.99 122.97C22.7 124.15 24.73 124.34 26.76 124.39C29.77 124.46 32.78 124.35 35.79 124.58C42.31 125.08 47.22 127.14 51.71 131.86C52.13 132.3 52.81 131.74 52.54 131.22C50.19 126.87 44.59 124.7 39.99 123.86C33.75 122.72 27.26 124.24 21.15 122.6C20.92 122.54 20.81 122.84 20.99 122.97Z" fill="#C96F3C"/>
<path d="M42.28 145.07C38.5 143.04 33.27 142 29.19 143.65C28.84 143.79 28.85 144.41 29.28 144.39C31.34 144.27 33.31 143.84 35.39 143.97C37.7 144.12 39.95 144.68 42.14 145.43C42.33 145.5 42.46 145.18 42.28 145.08V145.07Z" fill="#A09EA6"/>
<path d="M42.28 145.75C38.5 143.72 33.27 142.68 29.19 144.33C28.84 144.47 28.85 145.09 29.28 145.07C31.34 144.95 33.31 144.52 35.39 144.65C37.7 144.8 39.95 145.36 42.14 146.11C42.33 146.18 42.46 145.86 42.28 145.76V145.75Z" fill="#352F42"/>
<path d="M42.03 148.99C37.94 149.47 33.64 151.03 30.4 153.62C30.2 153.78 30.46 154.09 30.67 153.97C34.36 151.78 37.85 150.15 42.06 149.18C42.16 149.16 42.14 148.99 42.04 149L42.03 148.99Z" fill="#A09EA6"/>
<path d="M42.46 149.42C38.37 149.9 34.07 151.46 30.83 154.05C30.63 154.21 30.89 154.52 31.1 154.4C34.79 152.21 38.28 150.58 42.49 149.61C42.59 149.59 42.57 149.42 42.47 149.43L42.46 149.42Z" fill="#352F42"/>
<path d="M45.84 162.04C43.66 162.13 41.82 161.63 39.72 161.18C38.38 160.89 37 160.71 35.73 161.25C35.55 161.33 35.69 161.55 35.85 161.52C38.03 161.2 39.78 161.66 41.87 162.11C43.19 162.4 44.57 162.64 45.86 162.14C45.92 162.12 45.92 162.03 45.84 162.03V162.04Z" fill="#A09EA6"/>
<path d="M42.92 151.89C41.23 153.06 39.87 154.85 38.53 156.39C37.19 157.93 35.58 159.55 34.66 161.39C34.49 161.73 34.9 162.06 35.19 161.8C36.77 160.34 37.97 158.39 39.38 156.76C40.66 155.27 42.22 153.92 43.32 152.29C43.48 152.05 43.16 151.73 42.92 151.89Z" fill="#A09EA6"/>
<path d="M43.35 152.33C41.66 153.5 40.3 155.29 38.96 156.83C37.62 158.37 36.01 159.99 35.09 161.83C34.92 162.17 35.33 162.5 35.62 162.24C37.2 160.78 38.4 158.83 39.81 157.2C41.09 155.71 42.65 154.36 43.75 152.73C43.91 152.49 43.59 152.17 43.35 152.33Z" fill="#352F42"/>
<path d="M45.8399 162.56C43.4799 162.66 41.4999 162.08 39.2299 161.56C37.7899 161.23 36.2999 161.01 34.9199 161.64C34.7299 161.73 34.8799 161.99 35.0499 161.96C37.3999 161.58 39.2999 162.12 41.5499 162.65C42.9799 162.99 44.4599 163.26 45.8599 162.69C45.9199 162.66 45.9199 162.56 45.8399 162.56Z" fill="#352F42"/>
<path d="M14.1799 20.8C28.7099 51.25 35.4799 83.84 35.2499 117.51C35.2499 117.68 35.5099 117.68 35.5199 117.51C36.6999 84.4 28.8999 50.4 14.2499 20.76C14.2299 20.71 14.1599 20.76 14.1799 20.8Z" fill="white"/>
<path d="M47.99 166.54C45.97 160.81 44.42 155.01 43.34 149.04C42.27 143.1 42.15 136.89 40.77 131.03C40.62 130.4 39.66 130.55 39.66 131.18C39.61 137.17 40.92 143.54 42.05 149.4C43.19 155.36 44.8 161.3 47.4 166.79C47.55 167.12 48.11 166.89 47.99 166.54Z" fill="#A09EA6"/>
<path d="M38.15 172.1C40.03 171.69 41.85 170.59 43.5 169.62C44.94 168.77 46.93 167.88 47.79 166.39C48.02 165.99 47.64 165.55 47.22 165.65C45.54 166.01 43.92 167.59 42.46 168.51C40.91 169.48 39.18 170.28 37.77 171.43C37.44 171.7 37.8 172.18 38.16 172.1H38.15Z" fill="#352F42"/>
<path d="M38.08 171.58C37.78 172.9 38.59 174.08 39.91 174.45C42.12 175.06 44.2 173.06 45.81 171.9C47.06 170.99 49.9 169.64 49.78 167.72C49.7 166.51 48.6 165.74 47.54 166.29C47.11 166.51 47.31 167.22 47.79 167.2C48.26 168.22 48.09 168.94 47.3 169.34C46.93 169.62 46.55 169.91 46.18 170.19C45.55 170.66 44.92 171.14 44.29 171.61C43.74 172.02 43.21 172.47 42.63 172.82C41.74 173.35 38.52 174.95 38.83 171.69C38.87 171.27 38.19 171.18 38.09 171.59L38.08 171.58Z" fill="#352F42"/>
<path d="M0.459975 27.9799C1.77997 31.6999 3.54997 35.1899 5.24997 38.7399C7.37997 43.1899 8.99997 47.8499 10.62 52.4999C12.66 58.3399 14.58 64.2199 16.25 70.1799C19.21 80.6999 21.9 91.3299 24.18 102.01C25.19 106.74 26.25 111.54 26.56 116.38C26.58 116.77 27.16 116.77 27.16 116.38C27.16 112.65 26.25 108.83 25.52 105.2C24.37 99.4899 23.03 93.81 21.63 88.16C18.99 77.47 16.14 66.8599 12.57 56.4399C10.9 51.5499 9.22997 46.5999 7.17997 41.8499C5.14997 37.1399 2.49997 32.7199 0.649975 27.9299C0.599975 27.8099 0.419975 27.8599 0.459975 27.9799Z" fill="#A7B5CC"/>
<path d="M0.369977 27.83C5.66998 19.83 8.97998 10.36 8.03998 0.669967C8.01998 0.419967 7.61998 0.409967 7.63998 0.669967C8.22998 10.44 5.35998 19.47 0.0299768 27.63C-0.110023 27.84 0.229977 28.04 0.369977 27.83Z" fill="#A7B5CC"/>
<path d="M7.74998 0.519973C11.73 9.10997 18.39 16.11 21.79 25.05C25.41 34.55 28.11 44.5 30.43 54.39C35.26 74.91 38.37 95.87 38.1 116.98C38.09 117.99 39.65 117.99 39.66 116.98C39.88 95.77 36.75 74.61 31.62 54.05C29.09 43.92 26.29 33.57 22.38 23.87C19 15.46 13.34 7.70997 8.34998 0.169973C8.09998 -0.210027 7.55998 0.119973 7.74998 0.519973Z" fill="#A7B5CC"/>
<path d="M38.76 170.93C32.88 158.33 28.67 145.4 28.62 131.37C28.62 130.45 27.25 130.46 27.2 131.37C26.47 145.48 31.51 159.14 37.4 171.72C37.83 172.64 39.19 171.84 38.76 170.92V170.93Z" fill="#352F42"/>
<path d="M26.0799 116.58C28.4099 117.06 30.8099 117.3 33.1599 117.64C34.9299 117.9 37.2399 118.61 39.0199 118.23C39.2999 118.17 39.3699 117.72 39.0999 117.59C37.4199 116.8 35.1099 116.91 33.2899 116.69C30.9299 116.41 28.5399 115.99 26.1699 115.93C25.8099 115.93 25.7099 116.5 26.0799 116.58Z" fill="#B86E41"/>
<path d="M13.64 136.57C19.94 134.27 25.81 132.31 32.57 131.86C39.09 131.42 45.35 132.56 51.82 132.77C52.64 132.8 52.82 131.53 52.01 131.34C45.62 129.77 38.16 129.79 31.64 130.39C25.42 130.96 18.54 132.33 13.48 136.21C13.32 136.34 13.4 136.67 13.64 136.58V136.57Z" fill="#8B4720"/>
<defs>
<linearGradient id="paint0_linear_8_393" x1="25.75" y1="151.62" x2="47.07" y2="147.17" gradientUnits="userSpaceOnUse">
<stop stop-color="white"/>
<stop offset="0.99"/>
</linearGradient>
<linearGradient id="paint1_linear_8_393" x1="38.98" y1="118.36" x2="13.65" y2="32.92" gradientUnits="userSpaceOnUse">
<stop stop-color="white"/>
<stop offset="0.99"/>
</linearGradient>
<linearGradient id="paint2_linear_8_393" x1="36.32" y1="75.8399" x2="33.59" y2="141.33" gradientUnits="userSpaceOnUse">
<stop stop-color="white"/>
<stop offset="0.99"/>
</linearGradient>
</defs>
</svg>
