<svg width="90" height="182" viewBox="0 0 90 182" fill="none" xmlns="http://www.w3.org/2000/svg">
<path d="M89.32 175.75C89.32 175.75 80.98 157.25 74.21 139.01C67.43 120.77 65.35 108.78 65.35 108.78L60.4 82.72L58.84 71.51C58.84 71.51 60.92 71.77 60.92 70.99C60.92 70.21 59.36 68.91 59.36 68.91C59.36 68.91 58.58 67.87 52.85 69.43C47.12 70.99 43.73 72.56 43.73 72.56L47.64 84.29C51.49 99.05 55.8 113.76 58.32 128.8C59.68 136.89 61.07 144.9 61.71 153.09L63.79 178.63C63.79 178.63 68.22 180.71 76.82 180.71C85.42 180.71 89.07 178.36 89.33 175.76L89.32 175.75Z" fill="#974C34"/>
<path d="M75.61 53.11C75.87 52.58 76.03 52.24 76.03 52.24C76.03 52.24 77.03 47.57 77.03 43.24C77.03 40.38 75.58 35.19 74.59 32L78.57 29.11L84.22 23.2C84.22 23.2 84.22 22.02 82.78 22.28C81.45 22.52 71.28 23.77 69.72 23.96C67.87 21.63 65.65 19.03 63.71 17.23C63.11 16.67 62.31 16.16 61.38 15.68L58.47 0.100037L49.02 11.65L50.62 12.26C47.46 11.58 45.03 11.24 45.03 11.24C45.03 11.24 38.8 10.94 31.77 13.62L32.22 13.22C32.22 13.22 23.03 5.87004 22.37 6.26004C22.37 6.26004 23.95 10.2 24.08 12.17C24.19 13.84 24.59 16.83 24.7 17.7C20.54 20.94 17.7 24.57 17.7 24.57C17.7 24.57 17.3 25.5 16.73 26.88L14.1 26.49L16.07 28.46C15.22 30.53 14.19 33.07 13.44 35.14L13.58 33.98L6.74999 35.82L12.29 40.28C12.32 42.6 12.77 46.23 13.77 49.84L13.32 48.95L0.179993 57.35H7.65999L18.3 59.38C20.08 61.87 22.22 64.17 24.44 65.88C24.36 65.93 24.27 65.96 24.2 66.01L21.71 76.78L33.4 70.21C33.4 70.21 33.2 70.01 32.87 69.7C36.36 70.6 39.37 70.91 39.37 70.91L41.7 74.24L45.03 76.24C45.03 76.24 43.72 72.55 45.36 71.24C45.36 71.24 51.69 69.24 55.03 68.91C58.36 68.58 61.03 69.24 61.03 69.24L62.03 64.24L68.03 62.24C68.03 62.24 70.42 61.34 71.8 59.83L81.71 59.57L75.61 53.1V53.11Z" fill="#7C8FAB"/>
<path d="M43.72 72.5501L47.84 85.4401L52.57 83.0801L54.41 82.5501L60.4 82.7101L58.84 71.5001L60.92 70.9801C60.92 70.9801 60.97 68.8901 58.74 68.6301C56.51 68.3701 54.01 68.8901 54.01 68.8901L43.72 72.5401V72.5501Z" fill="#535664"/>
<path d="M63.07 168.04L65.96 166.59L73.97 165.67L81.06 165.8L84.73 166.2L74.76 140.2L72.26 141.38L68.06 142.7L62.94 143.48L60.58 143.35L62.02 155.83L63.07 168.04Z" fill="#535664"/>
<path style="mix-blend-mode:color-dodge" d="M48.09 13.91C40.37 12.68 31.09 14.21 25.56 20.28C22.02 24.17 19.38 27.42 17.95 32.67C16.65 37.41 16.52 42.51 17.97 47.23C20.26 54.75 26.82 61.06 34.61 62.15C36.93 62.47 39.61 62.21 41.07 60.39C41.82 59.46 42.13 58.27 42.6 57.17C45.29 50.87 52.71 48.29 57.66 43.56C61.09 40.29 63.38 35.76 63.65 31.03C63.92 26.3 62.07 21.42 58.5 18.29C55.63 15.78 51.87 14.5 48.1 13.9L48.09 13.91Z" fill="url(#paint0_radial_9_435)"/>
<path d="M65.43 24.5C65.43 24.5 66.32 31.44 68.56 31.21C70.8 30.99 84.2 23.21 84.2 23.21L69 36.36C69 36.36 61.39 30.77 65.42 24.5H65.43Z" fill="#53647D"/>
<path d="M75.61 53.11L81.71 59.58L71.8 59.84L75.61 53.11Z" fill="#53647D"/>
<path d="M48.88 53.81C48.88 53.81 60.07 56.27 60.07 54.26C60.07 52.25 59.4 45.09 59.4 45.09L65.44 58.74L50 58.96L48.88 53.81Z" fill="#53647D"/>
<path d="M25.83 60.3C25.83 60.3 37.24 56.27 37.24 53.59C37.24 50.91 32.99 48 32.99 48C32.99 48 39.03 49.12 40.37 52.47C41.71 55.82 41.04 59.18 41.04 59.18L39.25 61.86L29.63 62.31L24.71 63.21L25.83 60.3Z" fill="#53647D"/>
<path d="M27.17 68.13L21.71 76.78L33.4 70.22L27.17 68.13Z" fill="#53647D"/>
<path d="M2.55998 56.27C2.55998 56.27 13.08 55.38 13.08 53.81C13.08 52.24 13.76 49.83 13.76 49.83L15.09 55.15L18.3 59.38L10.39 57.62L0.169983 57.36L2.55998 56.28V56.27Z" fill="#53647D"/>
<path d="M11.74 34.79L9.28003 37.7L12.28 40.27L13.57 33.98L11.74 34.79Z" fill="#53647D"/>
<path d="M58.47 0.100037L56.25 9.73004C54.91 10.85 49.31 10.85 49.31 10.85L56.47 13.53L61.35 15.69L58.47 0.100037Z" fill="#53647D"/>
<path d="M22.37 6.27002L28.07 14.66L32.21 13.23L22.37 6.27002Z" fill="#53647D"/>
<path opacity="0.61" d="M49.1 16L41.27 32.56C41.27 32.56 41.49 36.36 46.42 37.03C51.34 37.7 56.04 35.02 56.04 35.02L49.1 16Z" fill="#53647D"/>
<path d="M14.09 26.4901L24.71 38.3701C24.71 38.3701 30.08 39.0401 31.65 35.2401C33.22 31.4401 31.87 26.5101 31.87 26.5101L14.09 26.4901Z" fill="#53647D"/>
<g style="mix-blend-mode:multiply" opacity="0.38">
<path d="M57.15 14.66C57.15 14.66 67.44 30.1 56.7 43.3C45.96 56.5 29.4 58.07 25.82 55.61C22.24 53.15 19.11 57.4 19.78 58.97C20.45 60.54 27.61 65.91 32.09 67.47C36.56 69.04 39.7 67.92 39.7 67.92C39.7 67.92 46.41 64.34 50.66 63.67C54.91 63 59.16 63 59.16 63C63.04 63 67.96 55.26 69.4 52.29C71.23 48.52 72.12 44.16 72.36 40C72.86 31.53 70.31 22.18 62.89 17.26C61.74 16.5 57.74 15.58 57.14 14.67L57.15 14.66Z" fill="#53647D"/>
</g>
<path d="M73.26 33.45C73.26 33.45 76.17 42.85 73.93 50.01C71.69 57.17 69.46 59.63 67.44 60.53C65.43 61.42 60.06 62.99 60.06 62.99L58.05 67.91C58.05 67.91 61.1 70.59 61.03 69.25C60.96 67.91 62.53 63.43 62.53 63.43C62.53 63.43 67.89 64.08 71.81 59.84C75.73 55.6 77.07 49.56 77.07 49.56L77.29 38.82L75.5 31.88L73.26 33.45Z" fill="#B1B9CB"/>
<path d="M17.11 30.32C17.11 30.32 14.2 36.58 14.43 41.95C14.65 47.32 16 53.14 18.01 56.49C20.02 59.85 24.21 66.01 24.21 66.01C24.21 66.01 16.89 58.95 13.76 50.67C10.63 42.39 16.08 28.46 16.08 28.46L17.12 30.31L17.11 30.32Z" fill="#B1B9CB"/>
<path d="M40.37 67.9L43.72 72.55C43.72 72.55 45.3 71.48 47.31 70.81C49.32 70.14 54.01 68.9 54.01 68.9C54.01 68.9 53.35 63.43 53.35 63.42C53.35 63.44 50.62 64.29 50.41 64.22C50.22 64.15 50.07 63.99 49.93 63.84C49.67 63.57 49.38 63.32 49.03 63.16C48.69 63 48.28 62.95 47.93 63.09C47.49 63.26 47.2 63.69 46.99 64.12C46.95 64.2 46.91 64.28 46.85 64.33C46.66 64.49 46.37 64.37 46.14 64.29C45.64 64.12 45.07 64.2 44.59 64.44C44.12 64.68 43.74 65.09 43.46 65.54C43.21 65.95 43.04 66.41 42.71 66.76C42.06 67.45 41.13 67.41 40.37 67.89V67.9Z" fill="#B1B9CB"/>
<path d="M64.93 25.53C64.93 25.53 63.98 26.96 67.54 26.72C71.11 26.48 82.76 22.29 82.76 22.29L70.87 23.39C70.87 23.39 63.5 23.87 64.93 25.53Z" fill="#B1B9CB"/>
<path d="M49.24 16.74C49.24 16.74 42.35 32.66 44.72 34.57C47.1 36.47 51.37 36.95 51.37 36.95C51.37 36.95 47.09 38.14 44.95 37.19C42.81 36.24 41.62 34.34 41.62 34.34L41.25 32.57C41.25 32.57 48.99 13.43 49.23 16.75L49.24 16.74Z" fill="#B1B9CB"/>
<path d="M15.26 26.48C15.26 26.48 31.42 28.14 30.95 31C30.47 33.85 30.47 35.28 29.05 36.23C27.62 37.18 26.67 38.13 26.67 38.13C26.67 38.13 31.9 36.23 32.61 33.14C33.32 30.05 32.61 26.72 32.61 26.72L15.26 26.48Z" fill="#B1B9CB"/>
<path d="M48.88 53.81C48.88 53.81 50.44 49.78 54.24 48.59C58.04 47.4 61.94 45.15 59.4 45.09C56.86 45.03 49.23 45.25 48.88 53.82V53.81Z" fill="#B1B9CB"/>
<path d="M28.09 56.19C28.51 56.82 35.46 48.35 35.46 48.35L31.66 48.11C31.66 48.11 27.14 54.76 28.09 56.19Z" fill="#B1B9CB"/>
<path d="M47.41 44.38C47.22 44.45 47.02 44.52 46.86 44.65C46.7 44.78 46.59 44.98 46.61 45.18C46.62 45.3 46.68 45.41 46.73 45.52C46.77 45.6 46.82 45.69 46.88 45.76C47.06 45.97 47.39 46.01 47.65 45.9C47.91 45.79 48.09 45.55 48.19 45.29C48.23 45.19 48.25 45.09 48.25 44.99C48.25 44.79 48.15 44.6 47.99 44.48C47.83 44.37 47.61 44.34 47.42 44.41L47.4 44.38H47.41Z" fill="#B1B9CB"/>
<path d="M43.86 46.14L43.38 46.11C43.38 46.11 43.3 46.11 43.26 46.12C43.22 46.14 43.19 46.19 43.17 46.24C42.92 46.82 42.77 47.44 42.73 48.06C42.73 48.1 42.73 48.15 42.76 48.19C42.78 48.21 42.82 48.22 42.85 48.23C43.52 48.4 44.2 48.57 44.87 48.74C44.92 48.75 44.98 48.76 45.02 48.74C45.05 48.72 45.07 48.69 45.09 48.66C45.5 47.92 45.78 47.11 45.91 46.28C45.2 46.04 44.42 45.99 43.68 46.12L43.86 46.14Z" fill="#B1B9CB"/>
<path d="M46.59 49.36C46.04 50.19 45.49 51.02 44.94 51.85C44.86 51.97 44.78 52.09 44.75 52.24C44.71 52.42 44.77 52.6 44.82 52.77C44.9 53.04 45 53.3 45.1 53.56C45.16 53.7 45.22 53.84 45.32 53.94C45.43 54.05 45.58 54.12 45.73 54.17C46.34 54.37 47.01 54.32 47.65 54.28C47.81 54.27 47.99 54.25 48.12 54.15C48.31 54 48.35 53.73 48.37 53.49C48.49 52.14 48.78 50.81 49.21 49.53C48.3 49.35 47.37 49.31 46.45 49.42L46.59 49.37V49.36Z" fill="#B1B9CB"/>
<path style="mix-blend-mode:color-dodge" d="M52.84 69.43C52.84 69.43 61.89 122.03 69.31 148C76.73 173.97 80.44 180.04 80.44 180.04L85.84 179.03L89.33 175.76C89.33 175.76 73.02 140.58 66.28 110.23C59.54 79.88 58.84 71.52 58.84 71.52L60.92 71C60.92 71 61.96 66.31 52.84 69.44V69.43Z" fill="url(#paint1_linear_9_435)"/>
<path d="M63.02 163.23C65.83 161.19 68.82 160.03 72.14 159.07C74.86 158.28 77.83 157.61 80.21 156C80.36 155.9 80.27 155.62 80.08 155.69C76.87 157 73.67 158.04 70.36 159.1C67.67 159.96 64.92 161.02 62.84 162.99C62.72 163.1 62.88 163.33 63.02 163.23Z" fill="#A7A4AC"/>
<path d="M63.41 176.49C60.63 180.64 72.57 181.34 74.56 181.4C77.98 181.51 81.49 181.12 84.79 180.18C86.94 179.57 89.35 178.68 89.72 176.2C89.84 175.4 88.62 175.06 88.49 175.86C87.91 179.72 79.48 180.11 76.59 180.24C75.06 180.31 62.57 180.06 63.96 176.72C64.1 176.38 63.58 176.21 63.4 176.48L63.41 176.49Z" fill="#6F3621"/>
<path d="M45.27 74.81C44.53 74.28 44.11 74.55 43.34 74.36C41.39 73.87 42.85 73.39 43.7 72.98C45.42 72.14 47.32 71.61 49.16 71.09C50.89 70.61 52.63 70.18 54.39 69.79C55.09 69.63 55.79 69.48 56.5 69.34C56.71 69.3 56.94 69.23 57.15 69.22L57.34 69.19C58.6 68.77 59.42 69.41 59.79 71.12C59.1 70.91 58.82 71.96 59.49 72.19C62.7 73.32 62.78 68.38 59.28 67.96C56.55 67.63 53.11 68.92 50.53 69.6C47.91 70.29 43.84 70.94 41.79 72.91C41.35 73.34 40.91 73.81 41.12 74.47C41.61 76.01 44.04 75.11 45.06 75.32C45.38 75.39 45.54 74.99 45.28 74.81H45.27Z" fill="#35404F"/>
<path d="M38.13 69.86C38.57 70.58 39.09 71.25 39.58 71.94C39.97 72.49 40.33 73.21 40.92 73.57C41.1 73.68 41.31 73.5 41.27 73.3C41.09 72.59 40.44 71.95 40 71.37C39.54 70.74 39.09 70.1 38.58 69.51C38.37 69.26 37.96 69.58 38.13 69.86Z" fill="#4F5D71"/>
<path d="M61.1 69.53C61.5 68.7 61.81 67.83 62.14 66.96C62.45 66.13 62.97 65.24 62.96 64.35C62.96 64.13 62.66 63.98 62.5 64.16C61.96 64.78 61.78 65.63 61.5 66.39C61.15 67.35 60.77 68.29 60.51 69.28C60.42 69.63 60.94 69.88 61.11 69.53H61.1Z" fill="#4F5D71"/>
<path d="M74.06 32.02C76.63 38.4 77.21 45.33 74.9 51.89C73.85 54.88 72.2 57.94 69.97 60.21C67.99 62.22 65.06 62.9 62.51 63.93C61.52 64.33 61.95 65.95 62.96 65.55C65.43 64.55 68.35 63.85 70.43 62.12C72.87 60.08 74.67 56.87 75.88 54C78.93 46.76 78.6 38.81 75.68 31.59C75.28 30.6 73.66 31.03 74.06 32.04V32.02Z" fill="#2D3746"/>
<path d="M47.54 65.82C52.77 63.44 57.45 63.37 62.95 64.77C63.25 64.85 63.34 64.43 63.07 64.32C58.16 62.31 52 63.09 47.49 65.73C47.43 65.76 47.49 65.84 47.54 65.81V65.82Z" fill="#4F5D71"/>
<path d="M47.95 85.8C49.96 84.79 51.96 83.79 53.97 82.78C55.72 81.9 57.66 81.17 59.2 79.95C59.42 79.78 59.18 79.43 58.94 79.5C57.05 80.03 55.3 81.19 53.56 82.09C51.57 83.12 49.58 84.16 47.59 85.19C47.18 85.4 47.54 86 47.95 85.8Z" fill="#424551"/>
<path d="M46.7 81.18C50.65 79.43 54.73 78.1 58.94 77.16C59.41 77.06 59.21 76.33 58.74 76.44C54.47 77.42 50.37 78.84 46.4 80.68C46.06 80.84 46.36 81.33 46.69 81.18H46.7Z" fill="#424551"/>
<path d="M44.57 75.6701C47.42 76.8701 50.74 77.8101 53.85 77.7901C54.01 77.7901 54.05 77.5401 53.89 77.5101C50.73 76.9201 47.7 76.4401 44.62 75.4801C44.5 75.4401 44.46 75.6201 44.57 75.6701Z" fill="#424551"/>
<path d="M44.28 73.1601C48.94 74.4701 54.57 75.3301 59.32 74.0101C59.68 73.9101 59.6 73.3801 59.23 73.3701C56.88 73.2901 54.53 73.6501 52.16 73.5801C49.57 73.4901 46.93 73.2201 44.38 72.7701C44.13 72.7301 44.02 73.0901 44.27 73.1601H44.28Z" fill="#424551"/>
<path d="M50.1 84.64C53.31 82.94 56.76 82.29 60.37 82.68C60.66 82.71 60.66 82.25 60.37 82.22C56.69 81.84 53.16 82.54 49.9 84.28C49.67 84.41 49.87 84.76 50.11 84.64H50.1Z" fill="#4F5D71"/>
<path d="M22.35 6.47004C23.51 10.39 24.24 14.02 24.59 18.12C24.6 18.29 24.85 18.29 24.85 18.12C24.98 14.26 24.17 9.89004 22.64 6.35004C22.57 6.19004 22.3 6.30004 22.35 6.47004Z" fill="#414D5E"/>
<path d="M22.68 6.28006C25.39 8.58006 28.25 10.8901 31.21 12.8401C31.43 12.9901 31.7 12.6401 31.5 12.4701C28.79 10.1701 25.77 8.08006 22.8 6.12006C22.71 6.06006 22.6 6.20006 22.68 6.27006V6.28006Z" fill="#414D5E"/>
<path d="M49.31 11.39C52.42 7.76003 55.46 4.07003 58.5 0.370027C58.67 0.160027 58.38 -0.129973 58.2 0.0700272C55.15 3.76003 52.09 7.45003 49.12 11.2C49.01 11.33 49.2 11.52 49.31 11.39Z" fill="#4F5D71"/>
<path d="M58.27 0.360046C59.06 5.50005 60.08 10.6 61.01 15.72C61.07 16.03 61.55 15.9 61.49 15.59C60.56 10.48 59.71 5.34005 58.63 0.270046C58.58 0.0300463 58.23 0.130046 58.26 0.370046L58.27 0.360046Z" fill="#4F5D71"/>
<path d="M40.87 33.33C42.79 39.2 50.53 39.15 54.95 36.23C55.46 35.89 55.15 34.97 54.51 35.19C52.1 36 49.97 37.07 47.34 36.83C44.8 36.6 42.59 35.34 41.17 33.21C41.07 33.06 40.81 33.15 40.87 33.34V33.33Z" fill="#4F5D71"/>
<path d="M41.21 32.98C44.23 27.41 46.84 21.56 49.62 15.86C49.96 15.15 48.92 14.53 48.56 15.24C45.63 20.87 42.76 26.77 40.77 32.8C40.68 33.06 41.08 33.23 41.21 32.99V32.98Z" fill="#96B3C7"/>
<path d="M48.79 16.09C50.18 22.64 52.93 29.11 55.06 35.45C55.32 36.23 56.57 35.89 56.3 35.11C54.13 28.73 52.38 21.89 49.49 15.79C49.3 15.38 48.71 15.68 48.8 16.08L48.79 16.09Z" fill="#4F5D71"/>
<path d="M64.4 24.83C62.51 28.61 64.46 35.72 68.92 36.92C69.51 37.08 69.93 36.34 69.51 35.9C68.1 34.45 66.6 33.57 65.69 31.65C64.66 29.47 64.67 27.42 64.98 25.08C65.02 24.76 64.57 24.47 64.39 24.83H64.4Z" fill="#4F5D71"/>
<path d="M64.34 24.8C70.73 23.81 77.08 23.49 83.52 23.05C84.18 23.01 84.18 22.07 83.52 22.03C77.11 21.66 70.4 22.73 64.23 24.39C63.96 24.46 64.08 24.84 64.34 24.8Z" fill="#4F5D71"/>
<path d="M69.64 36.04C75.07 32.85 80.04 28.27 84.37 23.73C84.75 23.33 84.15 22.73 83.76 23.12C79.19 27.66 74.24 31.5 69.32 35.62C69.09 35.82 69.39 36.19 69.64 36.04Z" fill="#4F5D71"/>
<path d="M6.34003 36.06C7.26003 36.85 8.23003 37.57 9.19003 38.31C10.12 39.02 11.04 39.96 12.12 40.4C12.3 40.47 12.38 40.23 12.29 40.12C11.61 39.25 10.52 38.65 9.64003 37.99C8.63003 37.24 7.63003 36.46 6.58003 35.77C6.40003 35.65 6.19003 35.93 6.35003 36.07L6.34003 36.06Z" fill="#414D5E"/>
<path d="M6.57003 36.19C7.86003 35.91 9.15003 35.59 10.43 35.26C11.54 34.97 12.73 34.79 13.75 34.26C13.95 34.16 13.86 33.8201 13.63 33.8301C12.48 33.8801 11.36 34.31 10.25 34.62C8.97003 34.97 7.70003 35.33 6.44003 35.74C6.15003 35.83 6.27003 36.27 6.57003 36.2V36.19Z" fill="#414D5E"/>
<path d="M0.319999 57.52C4.67 54.9 8.99 52.15 13.2 49.3C13.54 49.07 13.23 48.52 12.87 48.74C8.54 51.41 4.27 54.24 0.0999988 57.15C-0.120001 57.31 0.0799988 57.67 0.319999 57.52Z" fill="#414D5E"/>
<path d="M0.150011 57.62C2.99001 57.75 5.82001 57.68 8.66001 57.97C11.84 58.29 14.86 59.1 17.99 59.62C18.38 59.69 18.53 59.16 18.15 59.03C12.76 57.04 5.76001 56.46 0.100011 57.32C-0.0799888 57.35 -0.0199888 57.61 0.140011 57.62H0.150011Z" fill="#414D5E"/>
<path d="M23.96 67.02C22.73 70.08 22.21 73.57 21.41 76.77C21.35 77.02 21.61 77.2301 21.84 77.1001C25.56 74.9901 29.31 72.9301 32.98 70.7301C33.33 70.5201 33.02 69.9801 32.66 70.1801C28.91 72.2401 25.24 74.45 21.55 76.59C21.69 76.7 21.83 76.8101 21.98 76.9201C22.76 73.6901 23.91 70.3501 24.24 67.0501C24.26 66.8801 24.02 66.8801 23.97 67.0101L23.96 67.02Z" fill="#2C3645"/>
<path d="M24.78 63.49C27.03 58.32 28.92 53.06 31.84 48.21C32.03 47.89 31.55 47.62 31.35 47.92C28.2 52.55 26.37 58.13 24.41 63.33C24.33 63.55 24.69 63.7 24.79 63.49H24.78Z" fill="#96B3C7"/>
<path d="M32.52 48.55C36.47 48.53 40.04 50.93 40.38 55.06C40.49 56.43 40.35 58.03 39.69 59.27C39.07 60.41 38.02 60.73 37.09 61.5C36.75 61.78 36.95 62.35 37.34 62.45C41.28 63.48 42.23 57.02 41.88 54.48C41.25 49.97 37.04 46.89 32.53 47.48C31.87 47.57 31.82 48.56 32.53 48.55H32.52Z" fill="#343E4E"/>
<path d="M24.67 63.63C27.31 63.27 30.01 62.95 32.67 62.72C34.75 62.54 36.92 62.73 38.93 62.2C39.42 62.07 39.44 61.31 38.93 61.19C34.51 60.16 28.74 61.8 24.53 63.14C24.21 63.24 24.35 63.68 24.67 63.63Z" fill="#343E4E"/>
<path d="M50 57.8C48.97 54.79 48.59 51.7 50.56 48.93C52.71 45.9 56.45 45.17 59.86 46.07C60.59 46.26 60.87 45.19 60.17 44.95C52.87 42.43 44.41 51.17 49.48 58.02C49.66 58.26 50.13 58.13 50.01 57.8H50Z" fill="#4F5D71"/>
<path d="M50.4 59.05C54.75 59.22 59.77 59.77 64.04 58.87C64.68 58.74 64.7 57.67 64.04 57.56C59.73 56.83 54.74 57.56 50.4 57.9C49.67 57.96 49.65 59.02 50.4 59.05Z" fill="#343E4E"/>
<path d="M59.61 44.91C60.69 49.51 63.16 54.23 65.11 58.54C65.39 59.16 66.48 58.71 66.22 58.07C64.45 53.68 62.75 48.64 60.17 44.67C59.98 44.38 59.53 44.56 59.61 44.91Z" fill="#303A49"/>
<path d="M72.13 60.04C75.44 59.81 78.58 59.67 81.89 60.13C82.37 60.2 82.47 59.53 81.98 59.47C78.73 59.03 75.3 58.93 72.08 59.61C71.84 59.66 71.89 60.05 72.14 60.03L72.13 60.04Z" fill="#2D3746"/>
<path d="M74.71 52.66C75.91 53.99 77.19 55.25 78.44 56.54C79.55 57.68 80.6 59.02 81.89 59.95C82.03 60.05 82.22 59.85 82.12 59.72C81.22 58.41 79.91 57.32 78.79 56.19C77.54 54.91 76.3 53.6 75.01 52.37C74.81 52.18 74.53 52.47 74.71 52.67V52.66Z" fill="#2D3746"/>
<path d="M65.84 150.67C69.63 150.25 73.22 149.68 77.07 149.89C77.63 149.92 77.63 149.05 77.07 149.03C73.39 148.85 69.29 148.99 65.79 150.25C65.58 150.33 65.59 150.7 65.85 150.67H65.84Z" fill="#A7A4AC"/>
<path d="M62.34 155.11C67.76 155.31 73.04 155.26 78.38 154.25C78.73 154.18 78.58 153.65 78.23 153.71C72.97 154.65 67.66 154.86 62.34 155.01C62.28 155.01 62.28 155.11 62.34 155.11Z" fill="#424551"/>
<path d="M62.71 159.44C65.93 158.55 69.15 157.06 72.22 155.77C72.75 155.55 72.53 154.66 71.98 154.89C68.85 156.16 65.48 157.39 62.54 159.05C62.33 159.17 62.47 159.51 62.71 159.45V159.44Z" fill="#424551"/>
<path d="M62.85 163.72C65.66 161.68 68.65 160.52 71.97 159.56C74.69 158.77 77.66 158.1 80.04 156.49C80.19 156.39 80.1 156.11 79.91 156.18C76.7 157.49 73.5 158.53 70.19 159.59C67.5 160.45 64.75 161.51 62.67 163.48C62.55 163.59 62.71 163.82 62.85 163.72Z" fill="#424551"/>
<path d="M63.57 167.47C66.47 166.45 69.27 165.14 72.18 164.13C74.94 163.18 79.04 161.26 81.97 161.79C82.68 161.92 82.98 160.91 82.27 160.69C79.61 159.85 75.83 161.66 73.34 162.53C69.92 163.73 66.44 165.09 63.43 167.12C63.27 167.23 63.36 167.53 63.57 167.46V167.47Z" fill="#A7A4AC"/>
<path d="M63.57 167.86C66.47 166.84 69.27 165.53 72.18 164.52C74.94 163.57 79.04 161.65 81.97 162.18C82.68 162.31 82.98 161.3 82.27 161.08C79.61 160.24 75.83 162.05 73.34 162.92C69.92 164.12 66.44 165.48 63.43 167.51C63.27 167.62 63.36 167.92 63.57 167.85V167.86Z" fill="#424551"/>
<path d="M66.59 166.79C72.51 166.01 78.34 165.74 84.29 166.42C84.65 166.46 84.65 165.9 84.29 165.86C78.39 165.2 72.38 165.3 66.56 166.56C66.43 166.59 66.46 166.81 66.59 166.79Z" fill="#424551"/>
<path d="M60.23 143.31C62.93 143.49 66.79 143.62 69.21 142.2C69.49 142.03 69.37 141.6 69.04 141.59C67.75 141.56 66.45 142.05 65.17 142.26C63.54 142.53 61.87 142.76 60.22 142.93C59.98 142.95 59.97 143.29 60.22 143.31H60.23Z" fill="#A7A4AC"/>
<path d="M70.27 172.12C70.32 174.82 70.44 177.45 70.25 180.16C70.23 180.39 70.6 180.39 70.61 180.16C70.78 177.51 70.83 174.74 70.39 172.11C70.38 172.04 70.27 172.06 70.27 172.13V172.12Z" fill="#6F3621"/>
<path d="M70.64 176.38C71.31 177.95 72.56 179.41 73.74 180.63C73.89 180.79 74.13 180.55 73.98 180.39C72.75 179.12 71.86 177.69 70.83 176.27C70.74 176.15 70.58 176.25 70.64 176.38Z" fill="#6F3621"/>
<path d="M76.08 178.63C76.04 178.89 76 179.09 76.05 179.35C76.1 179.62 76.21 179.86 76.34 180.1L76.31 179.91C76.28 180.11 76.32 180.22 76.44 180.38C76.78 180.84 77.39 180.25 76.93 179.89C76.8 179.79 76.72 179.73 76.55 179.72L76.73 179.79C76.48 179.51 76.29 179.04 76.28 178.65C76.28 178.54 76.1 178.51 76.08 178.62V178.63Z" fill="#6F3621"/>
<path d="M82.35 173.49C82.97 175.5 83.8 177.38 84.54 179.35C84.73 179.86 85.48 179.47 85.19 179.07C83.98 177.4 83.14 175.39 82.48 173.45C82.45 173.37 82.32 173.4 82.35 173.49Z" fill="#6F3621"/>
<path d="M59.63 99.76C60.24 99.5 60.95 99.18 61.61 99.11C62.2 99.05 62.84 99.28 63.38 98.98C63.57 98.87 63.55 98.61 63.38 98.49C62.77 98.1 62.03 98.51 61.41 98.72C60.7 98.96 60.15 99.19 59.58 99.68C59.54 99.71 59.58 99.78 59.63 99.76Z" fill="#6F3621"/>
<path d="M57.82 117.22C57.82 117.22 57.74 117.2 57.72 117.24C57.69 117.18 57.62 117.15 57.56 117.15C57.18 117.15 56.87 117.22 56.58 117.49C56.48 117.58 56.48 117.72 56.54 117.83C56.56 117.88 56.6 117.9 56.64 117.93C56.72 117.98 56.85 117.98 56.92 117.93C57.09 117.81 57.25 117.7 57.43 117.6C57.56 117.53 57.71 117.5 57.75 117.35L57.65 117.42C57.71 117.42 57.77 117.41 57.82 117.41C57.94 117.41 57.94 117.23 57.82 117.23V117.22Z" fill="#6F3621"/>
<path d="M68.42 135.16C69.09 135.22 69.76 135.12 70.43 135.09C71.03 135.07 71.55 135.27 72.08 134.91C72.36 134.72 72.26 134.27 71.9 134.26C71.31 134.24 71.04 134.62 70.51 134.78C69.84 134.99 69.11 134.96 68.41 134.99C68.3 134.99 68.31 135.15 68.41 135.15L68.42 135.16Z" fill="#6F3621"/>
<path d="M37.6 70.1601C37.78 70.0401 37.98 69.99 38.07 69.79C38.13 69.66 38.03 69.55 37.9 69.57C37.68 69.6 37.58 69.79 37.42 69.92C37.29 70.03 37.46 70.2501 37.6 70.1601Z" fill="#4F5D71"/>
<path d="M38.04 69.81C38.8 69.15 39.57 68.68 40.48 68.26C41.17 67.94 42.03 67.77 42.61 67.28C42.73 67.18 42.61 67.03 42.5 67.01C41.71 66.91 40.72 67.45 40.07 67.86C39.28 68.35 38.51 68.97 37.83 69.6C37.69 69.73 37.9 69.94 38.04 69.81Z" fill="#4F5D71"/>
<path opacity="0.63" d="M67.88 44C68.23 44.22 68.57 44.45 68.92 44.67C69.23 44.86 69.53 45.09 69.87 45.21C69.94 45.23 69.99 45.14 69.94 45.09C69.68 44.84 69.33 44.68 69.02 44.5C68.67 44.29 68.31 44.1 67.95 43.89C67.88 43.85 67.81 43.96 67.88 44Z" fill="#4F5D71"/>
<path opacity="0.63" d="M72.17 43.62C72.97 43.92 73.78 44.19 74.55 44.57C75.08 44.83 75.64 45.1 76.23 45.15C76.41 45.17 76.44 44.92 76.32 44.83C75.76 44.44 75.06 44.31 74.4 44.15C73.66 43.96 72.95 43.67 72.23 43.41C72.1 43.36 72.04 43.57 72.17 43.62Z" fill="#4F5D71"/>
<path opacity="0.63" d="M74.73 42.08C74.98 42.1 75.23 42.13 75.49 42.14C75.7 42.14 75.85 42.18 76.02 42.04C76.07 41.99 76.07 41.9 76.02 41.85C75.86 41.7 75.7 41.74 75.49 41.74C75.24 41.74 74.98 41.76 74.73 41.77C74.53 41.78 74.53 42.06 74.73 42.08Z" fill="#4F5D71"/>
<path opacity="0.63" d="M36.97 15.71C37.42 14.98 37.91 14.29 38.46 13.64C38.9 13.11 39.45 12.63 39.84 12.06C39.9 11.97 39.78 11.85 39.69 11.91C39.13 12.32 38.7 12.95 38.27 13.49C37.74 14.17 37.25 14.88 36.78 15.6C36.7 15.72 36.89 15.83 36.97 15.71Z" fill="#4F5D71"/>
<path opacity="0.63" d="M36.66 20.72C36.84 20.32 37.15 19.87 37.2 19.43C37.2 19.37 37.11 19.33 37.07 19.38C36.78 19.71 36.65 20.25 36.49 20.65C36.45 20.75 36.62 20.82 36.66 20.72Z" fill="#4F5D71"/>
<path opacity="0.63" d="M37.94 18.38C38.05 18.11 38.17 17.85 38.25 17.57C38.27 17.49 38.17 17.45 38.12 17.52C37.97 17.76 37.86 18.02 37.75 18.27C37.7 18.4 37.88 18.51 37.94 18.38Z" fill="#4F5D71"/>
<path opacity="0.63" d="M40 14.84L39.94 14.62C39.9 14.46 39.63 14.49 39.64 14.66L39.66 14.89C39.68 15.14 40.06 15.08 39.99 14.84H40Z" fill="#4F5D71"/>
<path opacity="0.63" d="M39.95 14.95C40.23 14.44 40.54 13.95 40.89 13.48C41.08 13.23 41.27 12.99 41.5 12.77C41.71 12.57 41.92 12.43 42.05 12.17C42.12 12.04 41.98 11.9 41.85 11.97C41.39 12.22 41.1 12.79 40.79 13.2C40.4 13.72 40.06 14.26 39.75 14.83C39.68 14.96 39.88 15.08 39.95 14.95Z" fill="#4F5D71"/>
<path opacity="0.63" d="M55.67 24.18C55.93 23.82 56.2 23.48 56.42 23.09C56.5 22.96 56.31 22.79 56.2 22.92C55.91 23.27 55.67 23.65 55.42 24.03C55.32 24.19 55.56 24.32 55.67 24.18Z" fill="#4F5D71"/>
<path opacity="0.63" d="M57.84 21.73C58.11 21.51 58.43 21.31 58.62 21.01C58.66 20.95 58.59 20.85 58.52 20.88C58.18 21.02 57.92 21.3 57.65 21.54C57.51 21.66 57.71 21.84 57.84 21.73Z" fill="#4F5D71"/>
<path d="M61.44 19.33C61.51 19.22 61.57 19.14 61.6 19.01C61.62 18.93 61.53 18.85 61.46 18.9C61.34 18.98 61.28 19.06 61.2 19.18C61.09 19.33 61.34 19.47 61.44 19.32V19.33Z" fill="#4F5D71"/>
<path opacity="0.63" d="M18.12 44.05C17.88 44 17.66 43.9 17.42 43.87C17.22 43.84 16.98 43.78 16.8 43.9C16.75 43.94 16.74 43.99 16.78 44.04C16.92 44.21 17.16 44.2 17.37 44.22C17.61 44.25 17.85 44.21 18.09 44.22C18.19 44.22 18.21 44.07 18.11 44.05H18.12Z" fill="#4F5D71"/>
<path opacity="0.63" d="M16.14 44C15.29 44.14 14.42 44.14 13.57 44.33C13.27 44.4 13.41 44.82 13.69 44.78C14.54 44.66 15.35 44.36 16.18 44.19C16.3 44.17 16.25 43.99 16.13 44.01L16.14 44Z" fill="#4F5D71"/>
<path opacity="0.63" d="M22.26 44.83C22.45 44.8 22.59 44.81 22.75 44.7C22.86 44.62 22.85 44.44 22.71 44.41C22.5 44.35 22.36 44.41 22.16 44.46C21.91 44.52 22.02 44.87 22.26 44.83Z" fill="#4F5D71"/>
<path opacity="0.63" d="M15.92 33.96C15.6 33.72 15.21 33.49 14.83 33.38C14.52 33.29 14.4 33.69 14.63 33.86C14.95 34.1 15.37 34.26 15.75 34.37C16.01 34.45 16.12 34.1 15.92 33.96Z" fill="#4F5D71"/>
<path opacity="0.63" d="M26.06 43.64C25.79 43.68 25.62 43.67 25.4 43.88C25.21 44.07 25.13 44.33 25.12 44.59C25.12 44.66 25.18 44.74 25.25 44.76C25.94 44.88 27.06 44.93 27.21 44C27.26 43.72 27.12 43.45 26.88 43.3C26.67 43.17 26.3 43.11 26.18 43.38C26.15 43.45 26.18 43.55 26.27 43.54C26.45 43.54 26.59 43.47 26.75 43.61C26.96 43.8 26.88 44.08 26.7 44.26C26.34 44.61 25.78 44.51 25.34 44.43L25.47 44.6C25.49 44.29 25.78 43.83 26.1 43.75C26.17 43.73 26.14 43.63 26.07 43.64H26.06Z" fill="#4F5D71"/>
<path opacity="0.63" d="M32.29 42.95C32.42 42.71 32.65 42.73 32.87 42.78C32.97 42.8 33.07 42.8 33.1 42.69C33.12 42.64 33.1 42.57 33.06 42.54C32.71 42.21 32.15 42.34 31.92 42.74C31.78 42.98 32.16 43.2 32.29 42.95Z" fill="#4F5D71"/>
<path d="M20.64 55.59C20.11 55.84 19.69 56.36 19.33 56.82C18.99 57.26 18.49 57.79 18.41 58.37C18.4 58.46 18.53 58.53 18.6 58.48C19.02 58.17 19.25 57.6 19.56 57.18C19.93 56.68 20.41 56.2 20.67 55.63C20.68 55.61 20.66 55.58 20.63 55.59H20.64Z" fill="#4F5D71"/>
<path d="M41.27 65.8201C41.41 66.0401 41.46 66.3201 41.53 66.5701C41.59 66.7701 41.57 67.0101 41.69 67.1901C41.72 67.2401 41.82 67.2601 41.85 67.1901C41.95 66.9501 41.85 66.6901 41.77 66.4501C41.67 66.1801 41.48 66.0101 41.31 65.8001C41.3 65.7901 41.27 65.8001 41.28 65.8201H41.27Z" fill="#4F5D71"/>
<path opacity="0.63" d="M44.19 60.29C44.19 60.54 44.14 60.76 44.2 61.01C44.26 61.27 44.35 61.53 44.44 61.78C44.53 62.04 44.8 62.52 45.11 62.18C45.19 62.09 45.23 61.97 45.2 61.85C45.1 61.53 44.98 61.22 44.85 60.9C44.74 60.62 44.55 60.45 44.36 60.22C44.3 60.15 44.19 60.22 44.19 60.29Z" fill="#4F5D71"/>
<path d="M47.41 65.68C47.46 64.59 46.32 64.08 45.35 64.15C44.02 64.23 43.08 65.62 42.58 66.72C42.49 66.92 42.76 67.08 42.87 66.89C43.36 66.08 43.74 65.16 44.57 64.63C45.53 64.02 47.05 64.35 47.1 65.68C47.1 65.87 47.39 65.87 47.4 65.68H47.41Z" fill="#4F5D71"/>
<path d="M42.28 67.8701C43.62 68.6601 45.22 68.0001 46.5 67.3301C47.24 66.9401 48.15 65.9801 47.4 65.1501C47.27 65.0101 47.07 65.2201 47.2 65.3501C48.21 66.4301 45.93 67.3101 45.36 67.5501C44.41 67.9401 43.4 68.1101 42.46 67.5801C42.28 67.4801 42.11 67.7601 42.29 67.8601L42.28 67.8701Z" fill="#4F5D71"/>
<path d="M46.83 64.59C46.83 64.59 46.96 64.4 47 64.34C47.04 64.27 47.08 64.2 47.12 64.13C47.21 63.98 47.31 63.84 47.44 63.72C47.57 63.6 47.71 63.5 47.87 63.42C48 63.36 48.14 63.31 48.24 63.2C48.3 63.13 48.27 63.04 48.19 63.01C47.85 62.88 47.41 63.23 47.18 63.46C47.04 63.6 46.9 63.77 46.81 63.95C46.77 64.04 46.74 64.13 46.71 64.22C46.67 64.36 46.74 64.41 46.72 64.56C46.72 64.63 46.81 64.67 46.83 64.59Z" fill="#4F5D71"/>
<path d="M47.93 63.29C48.85 63.24 49.57 63.48 50.15 64.23C50.17 64.26 50.23 64.24 50.22 64.2C49.9 63.33 48.8 62.73 47.9 63.04C47.77 63.08 47.79 63.29 47.93 63.28V63.29Z" fill="#4F5D71"/>
<path d="M47.88 67.1201C47.95 67.1401 48 67.2001 48.07 67.2301C48.17 67.2701 48.31 67.2801 48.42 67.2901C48.65 67.3201 48.88 67.3201 49.11 67.3301C49.51 67.3501 49.52 66.7101 49.11 66.7001C48.88 66.7001 48.64 66.6801 48.41 66.7001C48.31 66.7001 48.2 66.7101 48.11 66.7401C48.03 66.7601 47.97 66.8201 47.89 66.8401C47.75 66.8801 47.76 67.0701 47.89 67.1201H47.88Z" fill="#4F5D71"/>
<path d="M49.65 67.13C50.62 66.39 52.51 66.7 53.1 65.46C53.43 64.76 52.92 63.81 52.1 63.96C51.9 64 51.98 64.31 52.19 64.27C52.58 64.2 52.82 64.54 52.88 64.85C52.96 65.24 52.69 65.59 52.39 65.81C52.05 66.05 51.64 66.15 51.24 66.25C50.6 66.41 50.03 66.54 49.56 67.03C49.5 67.09 49.58 67.2 49.65 67.15V67.13Z" fill="#4F5D71"/>
<path d="M44.54 51.72C44.66 52.47 44.72 53.29 44.97 54.01C45.01 54.11 45.17 54.1 45.17 53.98C45.16 53.21 44.91 52.41 44.76 51.66C44.73 51.51 44.51 51.58 44.53 51.72H44.54Z" fill="#4F5D71"/>
<path d="M44.92 53.92C45.71 54.44 47.14 54.82 47.98 54.2C48.05 54.15 48.03 54.02 47.93 54.03C47.48 54.07 47.06 54.22 46.6 54.21C46.04 54.19 45.52 54.02 45.04 53.73C44.91 53.65 44.8 53.85 44.92 53.93V53.92Z" fill="#4F5D71"/>
<path d="M44.69 51.91C45.35 50.95 46.18 50.11 46.87 49.18C46.96 49.06 46.77 48.92 46.66 49.02C45.81 49.83 45.2 50.86 44.58 51.84C44.53 51.91 44.65 51.97 44.69 51.91Z" fill="#4F5D71"/>
<path d="M46.59 49.47C47.05 49.55 47.51 49.62 47.97 49.69C48.34 49.74 48.7 49.83 49.07 49.77C49.2 49.75 49.16 49.58 49.07 49.54C48.72 49.39 48.3 49.4 47.92 49.36C47.49 49.31 47.05 49.28 46.62 49.25C46.49 49.25 46.46 49.45 46.59 49.48V49.47Z" fill="#4F5D71"/>
<path d="M43.49 45.65C42.96 46.25 42.41 47.2 42.65 48.02C42.68 48.11 42.79 48.1 42.83 48.02C42.97 47.66 43 47.28 43.13 46.92C43.27 46.53 43.46 46.15 43.69 45.81C43.77 45.69 43.59 45.55 43.49 45.66V45.65Z" fill="#4F5D71"/>
<path d="M42.51 48.12C43.23 48.56 43.98 48.91 44.84 48.96C45.01 48.97 45.05 48.69 44.88 48.66C44.1 48.49 43.32 48.32 42.61 47.96C42.5 47.9 42.41 48.06 42.51 48.12Z" fill="#4F5D71"/>
<path d="M45.29 48.31C45.61 47.7 45.83 47.09 46.01 46.43C46.03 46.36 46 46.27 45.93 46.24C45.3 45.95 44.24 45.76 43.59 46.07C43.49 46.12 43.55 46.25 43.64 46.26C44.02 46.31 44.4 46.22 44.79 46.28C45.14 46.34 45.46 46.45 45.8 46.55L45.68 46.34C45.57 46.99 45.36 47.64 45.11 48.24C45.07 48.34 45.24 48.41 45.29 48.32V48.31Z" fill="#4F5D71"/>
<path d="M46.43 44.7901C46.34 45.3201 46.61 45.8601 47.13 46.0601C47.65 46.2501 48.21 45.9601 48.43 45.4701C48.63 45.0201 48.44 44.5201 47.99 44.3101C47.6 44.1301 46.99 44.2001 46.83 44.6501C46.76 44.8501 47.01 44.9301 47.14 44.8301C47.33 44.6801 47.5 44.5901 47.75 44.6801C48.04 44.7901 48.12 45.0801 47.98 45.3501C47.59 46.0701 46.75 45.4801 46.76 44.8401C46.76 44.6501 46.46 44.6001 46.43 44.7901Z" fill="#4F5D71"/>
<path d="M61.63 153.3C66.17 150.33 70.63 147.88 75.65 145.8C75.87 145.71 75.79 145.35 75.55 145.43C70.53 147.05 65.55 149.74 61.54 153.18C61.47 153.24 61.56 153.36 61.64 153.31L61.63 153.3Z" fill="#424551"/>
<path d="M65.84 151.06C69.63 150.64 73.22 150.07 77.07 150.28C77.63 150.31 77.63 149.44 77.07 149.42C73.39 149.24 69.29 149.38 65.79 150.64C65.58 150.72 65.59 151.09 65.85 151.06H65.84Z" fill="#424551"/>
<path d="M60.23 143.7C62.93 143.88 66.79 144.01 69.21 142.59C69.49 142.42 69.37 141.99 69.04 141.98C67.75 141.95 66.45 142.44 65.17 142.65C63.54 142.92 61.87 143.15 60.22 143.32C59.98 143.34 59.97 143.68 60.22 143.7H60.23Z" fill="#424551"/>
<path d="M61.7 148.53C63.68 147.12 65.48 145.5 67.57 144.21C69.86 142.81 72.27 141.76 74.75 140.76C75.4 140.5 75.16 139.45 74.45 139.67C69.72 141.18 64.47 144.08 61.26 147.96C61.02 148.25 61.34 148.78 61.7 148.53Z" fill="#A7A4AC"/>
<path d="M61.35 149.17C63.33 147.76 65.13 146.14 67.22 144.85C69.51 143.45 71.92 142.4 74.4 141.4C75.05 141.14 74.81 140.09 74.1 140.31C69.37 141.82 64.12 144.72 60.91 148.6C60.67 148.89 60.99 149.42 61.35 149.17Z" fill="#424551"/>
<path d="M88.85 175.12C87.37 170.8 85.25 166.62 83.53 162.38C81.8 158.1 80.12 153.81 78.53 149.48C75.46 141.14 72.71 132.68 70.29 124.13C67.87 115.57 65.79 106.92 64.05 98.2C63.18 93.84 62.4 89.46 61.69 85.08C60.93 80.38 60.56 75.55 59.52 70.91C59.37 70.25 58.34 70.4 58.35 71.07C58.49 79.87 60.63 89.01 62.36 97.61C64.18 106.66 66.38 115.63 68.94 124.5C71.5 133.37 74.43 142.14 77.72 150.77C79.2 154.65 80.75 158.5 82.41 162.3C84.28 166.61 86.09 171.24 88.53 175.26C88.63 175.42 88.91 175.32 88.84 175.13L88.85 175.12Z" fill="#AF735C"/>
<path d="M43.69 72.4401C48.97 89.1001 53.56 105.92 56.85 123.09C60.21 140.63 61.98 158.23 63.28 176.02C63.31 176.37 63.84 176.38 63.83 176.02C63.21 158.62 60.77 141.09 57.53 124C54.22 106.52 49.83 89.1601 43.93 72.3701C43.88 72.2201 43.64 72.2801 43.69 72.4401Z" fill="#6F3621"/>
<path d="M17.74 27.06C23.38 18 32.84 12.36 43.59 12.36C53.4 12.36 62.88 16.71 69.24 24.16C69.94 24.98 71.12 23.79 70.43 22.97C63.62 14.99 53.27 10.44 42.78 10.69C31.73 10.95 22.09 16.91 16.29 26.21C15.72 27.13 17.17 27.97 17.74 27.06Z" fill="#96B3C7"/>
<path d="M14.56 26.56C20.09 27.94 26.93 28.36 32.58 27.59C33.13 27.52 32.94 26.72 32.46 26.68C29.51 26.43 26.49 26.64 23.52 26.55C20.55 26.46 17.58 26.14 14.61 26.21C14.41 26.21 14.36 26.51 14.56 26.56Z" fill="#96B3C7"/>
<path d="M39.02 70.2401C29.82 70.9901 22.1 64.8601 17.49 57.3601C12.03 48.4501 11.81 38.1701 16.39 28.8001C16.68 28.2101 15.81 27.6901 15.51 28.2801C10.61 37.9301 10.9 48.6601 16.65 57.8501C21.39 65.4301 29.59 72.0901 39.02 71.0101C39.5 70.9501 39.52 70.2001 39.02 70.2401Z" fill="#96B3C7"/>
<path d="M13.97 26.67C15.51 28.69 17.24 30.58 18.9 32.5C20.72 34.61 22.43 37.04 24.55 38.84C24.78 39.04 25.18 38.78 25 38.49C23.65 36.37 21.72 34.55 20.06 32.66C18.19 30.54 16.38 28.34 14.39 26.33C14.19 26.12 13.79 26.41 13.97 26.65V26.67Z" fill="#4F5D71"/>
<path d="M23.26 38.65C29.84 40.86 36.62 32.16 32.64 26.35C32.31 25.87 31.53 26.16 31.68 26.75C32.46 29.77 32.87 32.77 30.6 35.33C28.68 37.5 26.09 38.03 23.33 38.13C23.03 38.14 22.98 38.55 23.26 38.64V38.65Z" fill="#4F5D71"/>
<defs>
<radialGradient id="paint0_radial_9_435" cx="0" cy="0" r="1" gradientUnits="userSpaceOnUse" gradientTransform="translate(12.33 9.93001) scale(54 54)">
<stop stop-color="white"/>
<stop offset="0.99"/>
</radialGradient>
<linearGradient id="paint1_linear_9_435" x1="41.26" y1="129.49" x2="82" y2="121.66" gradientUnits="userSpaceOnUse">
<stop stop-color="white"/>
<stop offset="0.99"/>
</linearGradient>
</defs>
</svg>
